<svg fill="none" xmlns="http://www.w3.org/2000/svg" viewBox="0 0 772 127"><path fill-rule="evenodd" clip-rule="evenodd" d="M111.872 1.156c1.251-.035 2.481-.384 3.743-.243 1.074.39 1.343 1.393 1.741 2.293.129.289.202.602.328.894.106.242.166.58.479.597.415.019.45-.387.559-.665.466-1.172.714-2.437 1.496-3.473C122.47-.128 124.735.123 127 .48a.717.717 0 0 1 .248.728c-.458 5.79 2.48 9.796 6.828 13.083.921.695 1.747.682 2.726.055a19.261 19.261 0 0 0 7.086-7.706c.497-.99.325-2.142.96-3.06 1.657.242 3.328.413 4.931.945a13.04 13.04 0 0 1 3.077 4.58 42.096 42.096 0 0 1 2.974 14.148c.125 2.98.493 5.945.561 8.932a16.87 16.87 0 0 1-1.117 6.78 6.841 6.841 0 0 0-.545 2.78c-.232 1.322.509 2.316 1.183 3.306.528.771 1.06 1.545 1.635 2.281.76 1.131.793 2.396.589 3.672-.248 1.562-.665 1.924-2.252 2.101-.318.022-.622.14-.872.338-.869.725-1.813 1.123-2.998 1.003-.671-.068-1.295.273-1.66 1.09 1.333-.673 2.475-.637 3.418.546.272.349.657.223.929-.11.232-.272.401-.607.652-.872.297-.313.545-.85 1.09-.58.474.234.436.774.384 1.218a4.89 4.89 0 0 1-1.818 3.241c-.741.624-1.54.584-2.085-.302-.474-.769-.902-.818-1.401-.063-1.186 1.769-2.431 3.5-3.543 5.315-.466.752-.521 1.385.141 2.069.606.627.726 1.363.05 2.055-2.538 1.521-2.707 4.064-2.604 6.569a9.797 9.797 0 0 0 1.363 4.383c1.047 1.843 3.789 2.663 5.656 1.635 1.663-.924 2.726-2.336 3.448-4.07.382-.427.273-1.253 1.074-1.346.455.545.177 1.12 0 1.677-.872 2.933-3.044 4.65-5.62 5.966-.6.308-1.227.573-1.807.84 2.922-.066 5.8-.673 7.953-2.75 4.16-4.01 4.751-7.976 1.851-12.7-1.15-1.875-3.075-2.26-5.1-2.507.818.817 1.715 1.532 2.012 2.687a.545.545 0 0 1-.374.445.74.74 0 0 1-.738-.208c-.927-1.03-2.181-1.324-3.467-1.548-.856-.218-1.328-.76-1.287-1.651a1.93 1.93 0 0 1 1.496-1.881c2.293-.64 3.945-2.09 5.305-3.974.646-.894 1.177-1.813 1.305-2.928.096-.84.385-1.578 1.153-2.041a9.65 9.65 0 0 1 5.468.477c3.159 1.17 6.106 2.813 9.232 4.034 4.228 1.649 8.319 3.628 12.628 5.072 3.563 1.197 6.605 3.413 9.938 5.056.242.13.433.336.545.586.226.581.112 1.153-.024 1.737-.316 1.363.046 2.058 1.363 2.513 2.207.76 4.483.523 6.746.365.588-.04 1.166-.183 1.758-.063 1.943.873 3.173 2.538 4.486 4.103 2.974 4.24 6.542 7.975 10.02 11.788 1.382 1.519 2.625 3.108 3.418 5.018.194.466.417.949 0 1.401-.417.453-.804.194-1.24.022-1.698-.665-3.497-.1-5.25-.452a56.546 56.546 0 0 0-10.276-1.006c-3.562-.052-7.133-.335-10.516-1.829-1.55-.684-3.322-.864-5.056-.973-3.118-.2-6.236-.453-9.354-.681a2.098 2.098 0 0 0-.802-.069c-1.834-.022-1.831-.229-2.51-1.962-1.167-2.971-2.382-5.959-4.664-8.322-3.271-4.655-8.177-7.19-13.04-10.232.608 6.572-2.385 10.747-8.201 13.083-1.739.248-3.391 1.09-5.215.753-.836-.221-1.73-.207-2.532-.59-3.322-1.498-5.23-4.02-5.541-7.691.621-3.432 2.202-6.5 3.568-9.66 1.769-4.089 3.047-8.349 3.35-12.81.166-2.468-.322-4.779-2.382-6.499-.657-.545-1.284-.744-2.116-.529-1.908.496-3.876.24-5.819.218a.959.959 0 0 1-.722-.33c-.297-.95.362-1.09 1.025-1.152.943-.085 1.908 0 2.807-.366a4.852 4.852 0 0 0 2.911-2.682 1.36 1.36 0 0 0-.191-1.512c-1.671-2.216-3.938-3.285-6.653-3.43a4.232 4.232 0 0 0-2.693.818c-1.09.793-2.14 1.677-3.2 2.527-.624.502-.785.949.065 1.423 1.091.605 1.881 1.553 2.74 2.426a6.11 6.11 0 0 0 1.534 1.518c.891.7.802 1.39-.234 1.823-.837.35-1.696.657-2.562.93-.259.079-.736.174-.731.286.052.919.033 1.799-.545 2.59-.038.054.33.272.529.367a11.68 11.68 0 0 0 2.412.925c1.107.302 1.164.545.613 1.496a5.265 5.265 0 0 1-2.851 2.385c-3.816 1.406-7.457 3.233-11.088 5.14-1.134.6-1.322 1.075-.818 2.287.232.546.243.984-.272 1.309a1.912 1.912 0 0 1-2.066.057c-.562-.324-.458-.818-.178-1.306.447-.763.085-1.286-.501-1.752a6.083 6.083 0 0 0-.927-.57c-2.396-1.292-4.999-2.156-7.359-3.543a6.42 6.42 0 0 0-2.055-.704c-.374-.073-.919-.024-.949-.561-.024-.463.431-.654.804-.818a46.446 46.446 0 0 0 5.809-2.998c1.237-.78 1.829-1.766 1.763-3.27-.073-1.767-.109-3.544.213-5.302a3.06 3.06 0 0 0-.316-1.987c-.194-.368-.442-.742-.924-.663-.428.068-.521.483-.592.818-.204.973-.272 1.981-1.06 2.745-.848.831-1.731 1.635-2.827 2.104-5.92 2.48-11.53 2.227-16.226-2.772-.567-.605-.78-1.284-.493-1.993.736-1.801 1.45-3.62 2.845-5.072a7.559 7.559 0 0 1 3.544-2.18c.545-.15 1.488-.08 1.333-1.001-.142-.837-.9-1.308-1.723-1.29-1.554.033-3.088.238-4.282 1.42-.58.576-1.134 1.181-1.755 1.713-.273.234-.584.498-.976.335-.46-.194-.453-.643-.447-1.05.04-.591.193-1.17.452-1.703a15.868 15.868 0 0 1 2.764-4.361c1.74-2.006 4.119-1.851 6.444-1.66 4.031.327 6.563 3.039 8.994 5.833.78.894 1.592 1.744 2.437 2.57.742.728 1.518.72 2.325.123a5.612 5.612 0 0 0 2.006-2.521c.175-.467.431-1.009 1.031-.927.659.092.569.73.605 1.207a5.725 5.725 0 0 1-2.181 5.046c-.616.51-.774.869-.272 1.55a3.543 3.543 0 0 1 .564 3.23c-.39 1.35-.106 2.726.125 4.048.458 2.587.014 4.664-2.453 6.027-.788.436-1.414 1.13-2 1.834-.619.75-.587 1.453.272 1.944 2.091 1.215 4.41 1.891 6.664 2.725.308.102.641.094.944-.022a36.402 36.402 0 0 0 6.151-2.897c.884-.532.867-1.177.096-1.878-.772-.7-1.807-1.213-2.701-1.84a3.356 3.356 0 0 1-1.532-2.998c0-2.998.172-5.997-.117-8.995a1.378 1.378 0 0 1 .455-1.232c.959-.834.728-1.636 0-2.453a4.704 4.704 0 0 1-1.112-3.544 1.653 1.653 0 0 1 .324-1.019c.458-.529.908-.592 1.281.087.139.336.237.688.292 1.047.447 1.635 1.453 2.085 2.965 1.245 1.363-.757 2.467-1.856 3.5-2.998.818-.91 1.657-1.812 2.418-2.77 1.657-2.087 3.655-3.646 6.269-4.32a.573.573 0 0 0 .463-.362c-1.605-.935-3.21-.619-4.797 0a7.76 7.76 0 0 0-2.279 1.475c-1.395 1.232-3.15 1.785-4.802 2.526-.513.23-1.17.287-1.431-.332-.273-.665.414-.747.817-.992a24.228 24.228 0 0 0 6.444-5.588c.744-.921 1.208-2.11.439-3.27-.504-.775-2.063-.867-3.443-.352a11.901 11.901 0 0 0-4.832 3.437 1.343 1.343 0 0 0-.336 1.363c.605 2.335-.992 4.549-3.39 4.568a8.654 8.654 0 0 1-5.029-1.47c-.406-.272-.984-.653-.747-1.155.311-.646.957-.234 1.45-.087.657.196 1.218.608 1.837.888 1.417.646 2.998.431 3.947-.507.387-.381.608-.817.368-1.343-.273-.595-.791-.546-1.284-.382-2.11.739-3.543-.035-4.972-1.682-3.426-3.963-7.877-5.514-13.116-5.225-2.998.158-5.25 1.505-7.36 3.383-1.288 1.145-2.676 2.18-3.872 3.426-2.388 2.5-3.16 5.645-3.677 8.916-.183 1.153-.09 2.371-.723 3.431-.523.565-.973.218-1.42-.122a23.926 23.926 0 0 0-3.325-2.105c-1.003-.528-1.856-.444-2.516.467-.66.91-1.608 1.395-2.655 1.777a15.016 15.016 0 0 0-4.833 2.984c-2.08 1.873-4.12 3.79-6.064 5.828-2.535 2.663-5.858 4.217-9.431 5.143-1.802.467-3.653.657-5.495.884a2.368 2.368 0 0 1-1.567-.314c-.622-.545-.715-1.363-.952-2.077-.847-2.543-2.834-3.909-5.048-5.07-.4-.207-.788-.272-1.128.082-.649.654-1.856.673-2.197 1.505-.34.83.529 1.564.818 2.363.774 2.23 1.04 4.603 2.03 6.773.395.867-.338 1.221-.99 1.475-.694.272-.765.57-.144 1.003.191.123.369.267.53.428.705.738.661 1.273-.273 1.635-.843.33-.974.673-.393 1.363.58.69.297 1.09-.409 1.488-.954.545-.948 1.044-.068 1.698.793.592 1.785.627 2.685.924.57.189 1.526.178 1.43.93-.084.651-1.002.632-1.635.687a10.385 10.385 0 0 0-3.431.798c-.529.24-1.238.366-1.322 1.042-.085.676.635.907 1.09 1.24.185.13.4.212.594.33.273.169.592.34.48.727-.112.387-.45.44-.769.458-1.179.121-2.368.102-3.543-.057a34.766 34.766 0 0 1-8.273-2.674c-1.158-.518-1.537-1.592-.627-2.551 1.909-2.02 2.585-4.52 3.255-7.062 0-2.181-.065-4.34.05-6.501.103-1.987.454-3.936 1.667-5.634a8.216 8.216 0 0 1 2.693-2.426c.523-.294.785-.545.69-1.246-.245-1.777.422-3.369 1.235-4.906a.343.343 0 0 1 .362.054c.259.35.224.766.273 1.164.201 1.846 1.035 2.639 2.854 2.8.768.068.929-.18.776-.927-.455-2.243-1.692-4.045-3.074-5.784a1.892 1.892 0 0 0 .501-1.453c-.06-2.622 0-5.241.818-7.776.13-.415.125-.905.561-1.178.835.041 1.221.73 1.723 1.221a28.917 28.917 0 0 0 7.253 5.236 4.965 4.965 0 0 0 1.728.565c.246-.616-.092-1.142-.245-1.682-1.178-4.192-2.475-8.355-3.508-12.587-.243-.987-.42-1.96.09-2.917a29.377 29.377 0 0 1 6.506-5.47c.325-.202.69-.477 1.137-.254a1.438 1.438 0 0 1 .49 1.09c.112 3.432 2.072 6.024 3.898 8.682 1.701 2.477 3.942 4.5 5.82 6.83a.546.546 0 0 0 .477.24c.288-.357.163-.785.106-1.166-.48-3.116-.289-6.256-.22-9.377a14.315 14.315 0 0 1 2.316-7.586c1.036-1.586 1.878-3.311 3.254-4.663 1.303-.308 2.614-.177 3.926-.06a1.033 1.033 0 0 1 .043.798c-1.33 3.443-.3 6.815.387 10.167.594 2.9 1.894 5.574 3.07 8.276 1.261 2.894 3.458 5.072 5.595 7.296.126.133.276.24.442.317a.34.34 0 0 0 .272 0c.273-.445 0-.862-.152-1.262-.987-2.838-1.846-5.708-1.938-8.723-.14-4.538-.038-9.066 1.433-13.43.344-1.013.725-2.07 1.718-2.703l6.119-.455c.343.321.313.738.272 1.142-.528 4.12 1.09 7.324 4.192 9.905 2.574 2.137 2.582 2.033 5.297.092 3.232-2.314 5.5-5.364 7.397-8.757.782-1.401 1.06-2.998 1.543-4.495.12-.365.09-.758.433-.992Z" fill="#000100"/><path fill-rule="evenodd" clip-rule="evenodd" d="M86.847 37.817c.862-1.668.6-3.544.976-5.31.764-3.595 2.255-6.68 5.196-8.97 1.635-1.279 2.998-2.87 4.851-3.925 3.585-2.044 7.302-1.95 11.031-.76 3.138 1 6.029 2.499 7.973 5.363.946 1.396 2.287 1.456 3.74.895.757-.292 1.586-.513 2.033.381.447.894.052 1.614-.796 2.18-1.439.955-2.895.993-4.361.18a10.878 10.878 0 0 0-2.808-1.09c1.54 2.197 5.692 3.018 7.744 1.581 1.328-.93 1.652-2.115.872-3.51-.25-.456-.313-.704.071-1.143 1.652-1.886 3.544-3.371 5.997-4.072a4.479 4.479 0 0 1 1.057-.229c2.276-.1 3.402 1.668 2.369 3.694-.605 1.188-1.336 2.325-2.469 3.03-1.832 1.145-2.961 3.271-5.253 3.765-.12.027-.305.305-.272.387.199.466.654.324.937.207 1.753-.73 3.557-1.363 5.037-2.625 1.341-1.14 2.827-1.946 4.634-2.11 1.033-.095 1.979.213 2.908.57.273.1.592.349.505.72-.088.37-.445.212-.69.256-2.336.414-4.165 1.682-5.768 3.363-2.087 2.181-3.739 4.798-6.337 6.515-2.306 1.524-3.595 1.066-4.088-1.603-.071-.392.158-1.09-.505-1.033-.485.033-.531.646-.597 1.09-.204 1.404.292 2.563 1.172 3.634 1.107 1.346 1.091 1.52-.193 2.726a1.036 1.036 0 0 0-.319.973c.322 2.81.134 5.628.063 8.45-.044 1.76.545 2.94 2.063 3.769.796.43 1.551.933 2.257 1.499.94.763.935 1.7-.123 2.306a50.435 50.435 0 0 1-6.364 3.028c-.611.245-1.189.066-1.723-.147-2.058-.818-4.116-1.635-6.13-2.565-1.303-.594-1.439-1.534-.442-2.578.655-.687 1.306-1.475 2.124-1.887 2.322-1.177 2.616-3.074 2.338-5.361-.209-1.73-.545-3.45 0-5.244.298-.995-.272-2.028-1.06-2.813-.379-.374-.695-.693.117-1.09 2.203-1.05 3.168-3.566 2.453-6.27-.566.273-.667.818-.861 1.292a4.23 4.23 0 0 1-.818 1.393c-1.968 2.05-2.777 2.099-4.75.098-1.306-1.324-2.519-2.725-3.789-4.088-2.971-3.178-6.637-4.056-10.808-3.208-.362.04-.708.17-1.008.376-2.15 1.973-3.759 4.27-4.16 7.25.015.284.058.567.128.842.835-.89 1.489-1.545 2.091-2.246 1.344-1.567 3.176-1.807 5.059-1.908.85-.038 1.428.45 1.883 1.14.614.924.475 1.496-.68 1.703-1.74.311-3.272.965-4.447 2.39-1.076 1.323-1.771 2.846-2.44 4.381-.438 1.014-.084 1.777.786 2.568 5.113 4.633 11.778 5.02 17.251.924a4.113 4.113 0 0 0 1.701-3.066c.062-.63-.044-1.674 1.011-1.612.916.057 1.48.85 1.486 1.707.019 2.766-.033 5.536-.175 8.3-.041.779-.785 1.286-1.409 1.755-1.715 1.289-3.688 2.104-5.591 3.05-.509.253-1.136.31-1.466.804 3.892 1.06 7.332 3.118 10.903 4.857 1.57.766 1.575 1.246.684 2.633-.319.493 0 .703.316.818a2.02 2.02 0 0 0 1.715-.05c.395-.212.741-.457.201-1.01-.978-1-.804-1.89.507-2.549 2.95-1.486 5.836-3.094 8.911-4.342 2.18-.883 4.824-1.205 5.631-4.072-.848-.33-2.014-.371-2.998-.976-.491-.308-1.32-.464-1.344-1.009-.03-.6.859-.673 1.341-1.025-.158-.684-.992-.58-1.314-1.232 1.322-.77 2.862-.997 4.244-1.61.36-.159.872-.123.965-.616.101-.546-.471-.592-.774-.818-.594-.425-1.191-.831-1.409-1.584a.403.403 0 0 1 .373-.39c1.063.783 1.884 1.908 3.271 2.238 2.339 0 4.702.352 6.978-.545.229-.087.64-.1.771.036 1.175 1.218 2.699 2.161 3.102 3.995.878 4.007-.215 7.763-1.197 11.596-1.019 3.98-3.27 7.422-4.481 11.3-.332 1.09-.643 2.165-.964 3.247-.243 1.602-1.091 2.965-1.701 4.426a119.272 119.272 0 0 1-5.915 12.539c-1.437 2.592-3.421 4.789-5.288 7.067-1.545 1.887-3.32 3.492-5.56 4.468-1.107.482-.33 1.493-.818 2.096-.074-.047-.199-.085-.21-.145-.352-1.826-1.657-1.815-3.116-1.75-.842.039-1.114.336-1.09 1.091-.793-.505-1.69-.687-2.584-.938-2.576-.722-4.304-2.66-5.909-4.609-4.32-5.244-7.553-11.143-10.102-17.425-.545-1.344-1.185-2.644-1.834-3.942-1-3.203-2.581-6.204-3.374-9.483-.39-1.616-1.162-2.554-3.08-2.575-1.671-.017-3.198-.935-4.62-1.865-1.816-1.774-3.157-3.789-3.49-6.397-.196-1.537-1.013-2.884-1.583-4.307-.649-1.635-1.674-3.107-1.892-4.906a7.056 7.056 0 0 1 .376-2.81c.69-2.213 2.14-2.492 3.955-.796.075.115.114.25.112.387-.51 2.38.325 4.44 1.445 6.463.417.75.545 1.635.657 2.49.155 1.263.817 2.181 1.785 2.931 1.09.831 2.107 1.72 2.93 3.116-1.055-2.042-2.18-3.803-2.788-5.809-.213-.698-.545-1.382-.532-2.104.041-3.642-.725-7.212-.907-10.835.259-1.76.133-3.573.487-5.342Z" fill="#F9CFDB"/><path fill-rule="evenodd" clip-rule="evenodd" d="M79.646 50.153c.567 2.527 2.053 4.68 2.887 7.1.345.972.61 1.97.793 2.985.362 2.116 1.728 3.74 3.137 5.294-.063.897-.867 1.106-1.442 1.466a29.244 29.244 0 0 0-9.466 9.595c-1.191 1.938-1.889 4.113-2.941 6.122-1.663 3.167-3.181 6.408-4.795 9.602-.234.464-.384 1.058-1.09 1.077a72.49 72.49 0 0 1-8.245 2.197c-5.509 1.071-10.933 2.578-16.54 3.186-1.286.14-2.551.614-3.797 1.022-3.587 1.181-7.394.605-11.028 1.415-.733.164-1.246 0-1.027-1.12.321-1.655 1.046-3.026 2.322-4.002 2.71-2.071 4.301-4.974 6.122-7.727 1.493-2.254 3.099-4.432 4.655-6.642.592-1.342 1.908-2.007 2.903-2.933a145.717 145.717 0 0 1 6.493-5.643 18.23 18.23 0 0 1 2.453-1.169c1.793-.63 3.096-1.635 3.094-3.75 2.041-2.157 4.47-3.816 6.966-5.373 2.726-1.7 5.378-3.543 7.984-5.421 3.27-2.358 6.85-4.269 9.813-7.033a.786.786 0 0 1 .75-.248Z" fill="#000100"/><path fill-rule="evenodd" clip-rule="evenodd" d="M195.323 27.68c.964.387 1.362 1.278 1.769 2.112.545 1.172.975 2.407 1.455 3.615.324.673.12 1.33-.073 1.978a33.424 33.424 0 0 1-2.165 5.547c-.692 1.363-.52 1.614 1.055 1.532 1.507-.079 2.903-.63 4.323-1.09.379-.12.731-.38 1.161-.224.908.873 1.927 1.636 2.609 2.726a1.039 1.039 0 0 0 .728.545c3.846.725 5.996 3.486 7.855 6.586.09.155.191.305.273.457 1.09 1.235 1.602 2.805 2.409 4.206.766 1.33 1.363 2.761 2.232 4.034.818 1.175 1.737 2.148 3.119 2.712 1.496.61 1.921 1.968 1.052 3.334-2.006 3.159-4.827 5.34-8.33 6.65a.793.793 0 0 1-.545-.027c-.6-.376-.72-.997-.848-1.635-.272-1.363-.621-1.597-2.03-1.682-1.41-.084-2.778.395-4.157.64-.673.12-1.344.251-2.02.047-.305-.093-.64-.224-.703-.567-.068-.387.3-.526.567-.673 1.665-.919 3.434-1.636 5.127-2.636-.744-.774-1.728-1.128-2.606-1.635-.319-.186-.681-.404-.654-.802.027-.398.469-.507.796-.643a5 5 0 0 1 2.153-.382c-.311-.6-.793-.776-1.221-1.014-1.676-.937-1.69-1.008-.24-2.398a6.904 6.904 0 0 0-3.271-.164c-.447.063-.935.197-1.262-.234-.327-.43-.101-.883.18-1.248.731-.955.605-1.936.18-2.958-.684-1.652-1.041-3.295.098-4.925.401-.575.15-.965-.493-1.052a3.997 3.997 0 0 1-2.998-1.867c-.48-.742-1.156-.546-1.821-.273-.93.376-1.652 1.128-2.611 1.455-3.13.238-6.27.137-9.388.058a4.988 4.988 0 0 1-2.881-1.09c-1.769-1.342-3.729-1.723-5.909-1.208-1.516.354-3.061.253-4.601 0a3.973 3.973 0 0 1-2.622-1.532c-2.633-3.328-6.316-4.02-10.254-3.947-1.047.02-2.012.507-2.931 1.025-.504.273-.992.679-1.635.463-.341-.725.115-1.24.532-1.695 1.771-1.93 2.665-4.277 3.401-6.735 1.551-5.179 2.453-10.513 3.478-15.81.483-2.534.101-5.162.147-7.743 0-.485-.188-1 .191-1.436 1.505.986 3.309 1.398 4.77 2.469.769.605 1.224 1.458 1.709 2.268a38.158 38.158 0 0 1 5.525 18.009c.022.436-.087.913.308 1.273.485-.066.641-.488.837-.818 2.401-3.993 4.263-8.177 4.857-12.874.087-.692-.39-1.455.246-2.077 1.719.532 3.488.973 4.663 2.516a1.18 1.18 0 0 1 .466.802c.017 1.774.584 3.483.608 5.252.044 3.339.545 6.662.398 10.009a.896.896 0 0 0 .325.845 11.418 11.418 0 0 0 3.148-3.4c.817-1.362 1.908-2.534 2.575-3.984.197-.38.453-.706.944-.687Z" fill="#000101"/><path fill-rule="evenodd" clip-rule="evenodd" d="M66.737 93.38c1.183-1.458 1.75-3.251 2.579-4.892 1.796-3.563 3.475-7.19 5.271-10.75 2.208-4.386 5.397-8.041 9.676-10.63.77-.47 1.467-1.056 2.2-1.587 1.728 1.033 3.516 1.883 5.596 1.818 1.145-.038 1.636.709 1.867 1.635.932 3.606 2.647 6.94 3.666 10.513a.865.865 0 0 1-.226.753c-3.944 4.584-5.266 10.183-6.193 15.942-.294 1.832-.207 3.694-.51 5.525-.079.466.088 1.022-.48 1.311-4.06-.147-7.83 1.091-11.368 2.846-3.285 1.622-5.577 4.416-7.343 7.632a80.102 80.102 0 0 1-2.8 4.661c-.776 1.21-2 1.137-2.668-.164a12.686 12.686 0 0 1-1.273-4.565c-.441-4.489-.063-8.949.616-13.405.346-2.257 1.164-4.383 1.39-6.643ZM154.68 83.982c3.543-1.635 6.427-3.892 7.359-7.924.316-1.362.679-2.725.234-4.14a1.488 1.488 0 0 1 .142-1.303c4.732 3.206 10.058 5.593 13.449 10.502 1.589 2.007 2.614 4.337 3.772 6.591.769 1.496 1.145 3.127 1.663 4.707a41.744 41.744 0 0 0 1.908 4.653c1.177 2.314 1.404 4.863 1.597 7.39.229 2.979.406 5.963.341 8.956.006 1-.202 1.989-.611 2.9-.545 1.121-1.453 1.295-2.249.36-4.208-4.95-9.447-8.722-14.609-12.538-3.432-2.524-7.087-4.882-11.249-6.234a12.625 12.625 0 0 0-3.459-.638c-.584-.021-1.191 0-1.636-.482-.578-.305-.501-.878-.613-1.401-.564-2.633-1.126-5.274-2.856-7.463-.477-.766-.772-1.616-1.167-2.423-.218-.447-.376-.921-.06-1.404.771.494 1.725.273 2.527.649 1.949.575 3.712-.243 5.517-.758Z" fill="#FFD10D"/><path fill-rule="evenodd" clip-rule="evenodd" d="M146.628 84.1c.218 1.346 1.046 2.452 1.491 3.704a40.297 40.297 0 0 1 2.578 6.484c.371 1.188.379 2.284-.441 3.29-1.197 2.227-1.183 4.721-1.538 7.125-.839 5.724-2.18 11.303-4.314 16.679-.532 1.343-1.328 2.581-2.023 3.854-.272.52-.602 1.049-1.314 1.03-.817-.022-1.202-.602-1.45-1.251-.736-1.908-1.733-3.702-2.671-5.514-2.074-4.002-5.018-6.929-9.401-8.564-1.935-.717-4.388-1.14-5.337-3.544-.608-1.363-.256-2.123 1.251-2.666 1.508-.542 2.669-1.692 3.764-2.845a50.382 50.382 0 0 0 9.709-14.795c1.494-3.44 2.931-6.9 4.561-10.276.389 3.358 2.066 5.814 5.135 7.288Z" fill="#D73916"/><path fill-rule="evenodd" clip-rule="evenodd" d="M90.184 103.01c.373-2.911.365-5.855.9-8.758.83-4.535 2.245-8.839 4.707-12.756.474-.752 1.196-1.346 1.804-2.014.649 1.335 1.417 2.627 1.93 4.015 2.033 5.522 5.143 10.456 8.373 15.305a23.34 23.34 0 0 0 5.002 5.32c1.066.84 2.24 1.412 3.584 1.429.818 0 1.11.392 1.314 1.033.545 2.63-1.229 4.034-2.966 5.337-1.807 1.362-3.75 2.534-5.664 3.739a7.768 7.768 0 0 0-3.518 4.634 9.41 9.41 0 0 1-.818 2.003c-1.636 2.936-3.108 3.271-6.386 3.361-.848.022-.92-.597-.982-1.186-.294-2.742-.545-5.495-.861-8.234a38.07 38.07 0 0 0-2.535-9.657c-.545-1.363-1.554-2.549-3.121-3.023-.294-.073-.515-.357-.763-.548Z" fill="#000101"/><path fill-rule="evenodd" clip-rule="evenodd" d="M214.348 72.291c3.511-1.441 6.572-3.461 8.594-6.781.605-.995.338-2.39-.668-2.663-2.126-.575-3.183-2.18-4.14-3.884-1.363-2.44-2.84-4.844-3.816-7.493 2.423.248 4.688 1.071 6.847 2.11 2.701 1.3 5.451 1.962 8.42 1.332.752-.158 1.234.063 1.703.734 2.473 3.53 5.724 6.07 9.657 7.888a28.879 28.879 0 0 0 7.867 2.453c.42.063 1.049.098 1.057.662 0 .676-.676.663-1.133.7-2.484.213-4.969.42-7.458.546-1.63.071-3.246.346-4.808.818-1.499.46-1.652.883-1.017 2.287 1.09 2.39 2.909 4.243 4.498 6.269.272.338.817.61.545 1.128-.259.472-.834.354-1.249.273-3.69-.72-7.487-.614-11.175-1.453a6.11 6.11 0 0 0-1.758-.06c-1.453.098-1.93.777-1.576 2.148.355 1.37.246 1.51-1.147 1.305-1.221-.18-2.355-.656-3.522-1.016a23.312 23.312 0 0 0-8.139-1.066l-4.145-3.835a.317.317 0 0 1 .105-.364.323.323 0 0 1 .121-.059c2.183-.455 4.203-1.395 6.337-1.978ZM48.614 73.445l-9.417 8.264c-2.838.482-5.703.324-8.562.346-.768 0-1.254-.289-1.19-1.11.122-1.567-.958-1.78-2.097-1.864-2.352-.172-4.71-.294-7.065-.439a4.519 4.519 0 0 1-2.099-.517c-1.09-.657-1.071-1.699.063-2.29.643-.335 1.344-.572 1.859-1.112.79-.818.567-1.745-.545-1.864-3.247-.338-6.447-.355-9.336 1.553-.87.572-1.834.995-2.75 1.494-2.33 1.275-4.487.501-6.602-.586a1.453 1.453 0 0 1-.87-1.437c.044-.618.598-.69 1.015-.95 4.02-2.53 8.406-4.488 11.906-7.821 1.698-1.62 3.764-2.344 6.149-2.524 2.794-.213 5.574-.717 8.338-1.216 1.066-.193 1.957-.932 2.818-1.6.453-.351.842-.526 1.306-.07a10.085 10.085 0 0 1-2.372 6.064c-.49.592-.93 1.221-1.458 1.788-1.036 1.112-.907 1.753.45 2.53a21.106 21.106 0 0 0 8.384 2.603c3.143.33 6.27.817 9.472.39.823-.11 1.796-.156 2.603.368Z" fill="#D73916"/><path fill-rule="evenodd" clip-rule="evenodd" d="M48.614 73.445c-5.61.215-11.2.234-16.676-1.325-1.586-.453-3.025-1.21-4.448-1.998-1.164-.643-1.287-1.843-.273-2.666 2.475-2.02 3.715-4.707 4.326-7.755l.079-.027a9.947 9.947 0 0 1-2.339 6.463 6.51 6.51 0 0 0-.932 1.31c-.351.729-.123 1.151.499 1.413 3.677 1.543 7.36 3.094 11.472 2.884.382-.02.818.106 1.14-.396-.668-.362-1.412-.545-1.987-1.076-.965-.894-.938-1.396.272-2.01a11.484 11.484 0 0 1 4.14-1.185c.63-.06 1.252-.174 1.95-.272-.546-.57-1.216-.524-1.802-.695-.477-.14-.979-.21-1.453-.358-1.02-.321-2.134-.744-2.129-1.967 0-.963 1.2-.84 1.87-1.273-.027-.107-.019-.257-.093-.341-1.19-1.387-1.202-1.404.48-2.18.818-.385.21-.693-.024-.987-.488-.614-1.532-.644-1.726-1.59.744-.272 1.65-.348 2.126-.839.684-.706-.417-1.273-.602-1.954-.583-2.135-.968-4.326-1.8-6.395-.247-.618-1.067-1.071-.817-1.771.251-.701 1.194-.513 1.734-.908.109-.082.272-.115.34-.218.944-1.617 1.96-.63 2.999-.115 2.919 1.464 4.3 4.026 5.08 7.03.467.649.311 1.398.298 2.107-.041 2.32.081 4.617.67 6.874a14.23 14.23 0 0 0 2.412 5.133c.434.567.962 1.109.9 1.908.319 1.85-.684 2.905-2.208 3.622-1.15.545-2.317 1.041-3.478 1.556Z" fill="#FFD10D"/><path fill-rule="evenodd" clip-rule="evenodd" d="M163.966 8.068c.638 4.83.172 9.573-.897 14.31-.817 3.628-1.594 7.256-2.567 10.843-.728 2.685-1.908 5.09-3.746 7.163-.272.3-.605.584-.444 1.066-.341.919-1.09.774-1.823.717a3.675 3.675 0 0 1 .185-2.639 16.553 16.553 0 0 0 1.306-7.55c-.314-5.87-.366-11.783-1.783-17.532-.779-3.161-1.701-6.304-3.96-8.823a1.699 1.699 0 0 1-.466-1.09c1.85.016 3.726.025 5.503.526a64.673 64.673 0 0 1 8.692 3.01Z" fill="#FFD10E"/><path fill-rule="evenodd" clip-rule="evenodd" d="M111.872 1.156c-.221 2.998-1.578 5.539-3.08 8.024-1.97 3.271-4.789 5.659-7.904 7.755-.739.496-1.437.444-2.143-.04-3.565-2.454-6.163-5.493-6.206-10.086.03-.859.104-1.716.22-2.568 3.427-2.126 7.286-2.897 11.176-3.567a17.484 17.484 0 0 1 7.937.482ZM144.84 3.574c.15 3.15-1.794 5.34-3.585 7.547-1.324 1.636-3.104 2.77-4.887 3.868-.493.302-.937.463-1.521.193-4.5-2.098-8.289-8.397-7.986-13.356.03-.45.09-.896.139-1.346 1.837-.638 3.74-.496 5.615-.379a30.798 30.798 0 0 1 11.93 3.206c.11.075.209.165.295.267Z" fill="#D73916"/><path fill-rule="evenodd" clip-rule="evenodd" d="M86.64 4.691c-2.112 3.345-2.56 7.122-2.725 10.939a51.93 51.93 0 0 0-.025 5.565c.2 3.168 1.189 6.114 2.208 9.066.163.466.439 1.036-.09 1.338-.477.273-.752-.31-1.09-.588-4.334-3.566-6.618-8.387-8.39-13.539-.921-2.674-1.322-5.451-1.695-8.229-.248-1.856.272-3.581.926-5.28 2.71-.384 5.4-.081 8.082.273.932.125 1.867.303 2.8.455Z" fill="#FFD10D"/><path fill-rule="evenodd" clip-rule="evenodd" d="M71.834 4.023c-.439 1.208-1.21 2.233-1.962 3.239-2.903 3.886-3.544 8.324-3.35 13.001.082 2.132.16 4.258.436 6.373.04.324.093.668-.207.87-.3.201-.608-.028-.818-.273-3.145-3.846-6.781-7.319-9.027-11.865-.862-1.736-.952-3.568-1.216-5.394 1.39-1.445 3.143-2.388 4.857-3.334 2.998-1.649 6.25-2.546 9.638-2.946.562-.066 1.183-.194 1.65.33ZM182.217 16.322c.355 5.765-2.148 10.614-4.971 15.343-.273.477-.456 1.472-1.156 1.265-.616-.183-.371-1.115-.406-1.715-.425-7.201-2.453-13.863-6.613-19.816a3.873 3.873 0 0 1-.346-.861 8.308 8.308 0 0 1 5.233 1.423 43.974 43.974 0 0 0 8.259 4.36Z" fill="#FFD10E"/><path fill-rule="evenodd" clip-rule="evenodd" d="M48.05 15.698c-.183 2.368.7 4.543 1.289 6.762.908 3.404 1.908 6.787 2.87 10.175.071.256.273.515.046.755-.305.32-.545 0-.839-.111-4.157-1.508-7.39-4.313-10.407-7.417.205-1.736 1.437-2.974 2.23-4.405a21.664 21.664 0 0 1 4.81-5.76Z" fill="#D73916"/><path fill-rule="evenodd" clip-rule="evenodd" d="m195.323 27.68-2.868 4.396c-.97 1.491-2.033 2.9-3.478 3.974-.237.178-.477.497-.818.303-.259-.147-.215-.45-.204-.733.18-5.629-.39-11.211-1.074-16.782 3.764 1.796 6.106 5.02 8.363 8.33.087.128.054.34.079.512Z" fill="#D73A17"/><path fill-rule="evenodd" clip-rule="evenodd" d="M202.848 41.158a12.995 12.995 0 0 1-6.593 1.636c-.949-.022-1.238-.207-.706-1.175 1.42-2.576 2.537-5.28 2.998-8.212a36.274 36.274 0 0 1 4.301 7.752Z" fill="#FED21F"/><path fill-rule="evenodd" clip-rule="evenodd" d="M39.137 36.269c1.504.888 2.2 2.38 2.837 3.89.295.7.335 1.51.646 2.202.545 1.234-.13 1.177-.967 1.035-2.955-.501-3.465-1.169-3.394-4.42 0-.718.36-1.347.513-2.026a.755.755 0 0 1 .365-.681Z" fill="#FDD011"/><path fill-rule="evenodd" clip-rule="evenodd" d="M120.207.559c-.457 1.407-.902 2.816-1.379 4.214-.114.333-.302.709-.747.657-.381-.046-.387-.444-.501-.722-.545-1.322-.965-2.713-1.976-3.795a7.774 7.774 0 0 1 4.603-.354Z" fill="#D63D19"/><path fill-rule="evenodd" clip-rule="evenodd" d="M181.312 92.415c-1.223-2.61-2.107-5.372-3.502-7.918-.624-1.14-1.557-2.104-1.933-3.38 1.876 1.568 2.568 3.895 3.745 5.904.611 1.041 1.164 2.129 1.29 3.394.087.88.708 1.316 1.611 1.324.395 0 .817-.188 1.18.082-.722.505-1.813-.474-2.391.594Z" fill="#E5D095"/><path fill-rule="evenodd" clip-rule="evenodd" d="M150.256 97.58c1.273-2.4-.292-4.401-.965-6.511-.349-1.09-1.126-2.05-1.172-3.27 1.908 2.155 2.317 4.905 2.927 7.55.109.468.046.98.273 1.436-.559-.022-.584.698-1.063.796Z" fill="#F5BB76"/><path fill-rule="evenodd" clip-rule="evenodd" d="M38.772 36.95c.081.739-.213 1.385-.513 2.025l-.308-.013c.166-.715.31-1.437.82-2.012Z" fill="#A19166"/><path fill-rule="evenodd" clip-rule="evenodd" d="m154.489 42.167 1.823-.717c.635-.349 1.284-.676 1.908-1.05 2.519-1.526 5.081-.765 7.662-.212 1.908.406 3.565 1.251 4.697 2.794 1.908 2.606 4.59 2.611 7.239 2.145 2.649-.466 4.936-.245 7.002 1.53.775.662 1.748.722 2.704.73 2.999.032 5.997.04 8.995.057.349.398.104.788-.073 1.126-2.2 4.186-1.865 8.45-.415 12.748.706 2.096 1.603 4.137 1.876 6.364.092.772.212 1.543-.529 2.1-.766-.393-1.559-.734-2.29-1.184-6.144-3.772-13.048-5.811-19.625-8.588-2.963-1.252-5.795-2.773-8.79-3.958-2.197-.87-4.361-1.442-6.733-1.265-.79-.589-.447-1.385-.343-2.104.098-.668.351-1.306.387-1.993.114-2.292-.235-2.725-2.576-3.197a16.436 16.436 0 0 1-2.892-4.154 1.278 1.278 0 0 1-.027-1.172ZM54.297 68.271c-2.328-2.925-3.938-6.152-4.214-9.946a56.74 56.74 0 0 1-.065-6.09c5.61-.141 10.854-1.51 15.264-5.115 2.126-1.74 3.906-3.895 5.904-5.8a18.611 18.611 0 0 1 6.476-4.133 4.497 4.497 0 0 0 2.022-1.518c.84-1.036 1.77-1.175 2.999-.529 1.474.78 2.747 1.848 4.18 2.677.497 1.859-.04 3.693-.135 5.538-.461 1.243-1.42 2.091-2.353 2.955-.215.199-.46.48-.817.226a5.723 5.723 0 0 1-.745-.297c-1.409-.801-2.292-.482-2.725 1.123-.243.897-.273 1.85-.417 2.778-6.27 5.209-13.225 9.471-19.977 14.01-1.905 1.267-3.642 2.701-5.397 4.121Z" fill="#D73916"/><path fill-rule="evenodd" clip-rule="evenodd" d="M197.364 69.778c.646-2.055-.163-3.933-.834-5.775-.995-2.726-1.848-5.484-2.107-8.387-.185-2.075.374-4.034 1.107-5.948.289-.755.648-1.485.976-2.227 1.019-.57 1.861-1.425 3.044-1.75.722-.196 1.227-.144 1.576.567.577 1.18 1.561 1.655 2.845 1.764 1.224.103 1.363.471.706 1.458-.935 1.382-.88 2.818-.245 4.266.635 1.447.927 2.794-.273 4.173-.58.67.112.66.57.61 1.535-.166 3.058-.272 4.65.401-.515.649-1.415.638-1.832 1.363 1.069.76 2.424 1.158 3.288 2.453-1.317.027-2.579-.038-3.797.741 1.278.843 2.769 1.312 3.914 2.47l-6.408 3.162c1.292.76 2.521.207 3.72-.017a16.249 16.249 0 0 1 3.366-.4c1.298.027 2.045.605 2.159 1.93.052.588.142 1.172.545 1.635-1.681 1.267-3.701 1.635-5.672 2.134-.302.077-.646 0-.88.273-1.846.1-3.691.207-5.536.302a9.078 9.078 0 0 1-3.721-.613c-1.324-.501-1.766-1.395-1.346-2.726.193-.599.256-1.233.185-1.859Z" fill="#FFD10D"/><path fill-rule="evenodd" clip-rule="evenodd" d="M151.918 66.865c1.655-.044 2.838.916 4.018 1.883 1.167.619 1.109 1.766 1.238 2.838.218 1.796-.385 3.45-.875 5.124a7.48 7.48 0 0 1-2.726 3.775c-2.434 1.802-6.376 1.317-7.717-2.843-.787-2.453-.986-4.87-.062-7.319.409-1.09.986-2.036 2.18-2.433 1.246-.565 2.489-1.24 3.944-1.025Z" fill="#FFD10F"/><path fill-rule="evenodd" clip-rule="evenodd" d="M151.918 66.865c-1.362.22-2.554 1.008-3.957 1.025.913-.818.218-1.401-.363-1.865-.687-.545-.632-.984-.234-1.706 1.158-2.11 2.6-4.029 3.93-6.021.818-1.208 1.09-1.175 1.764.046.605 1.118 1.191 1.028 1.965.21 1.036-1.09 1.701-2.309 1.537-3.963-.875.231-1.136.946-1.493 1.523-.529.859-.99 1.186-1.636.104-.61-1.011-1.461-1.118-2.415-.442-.365.273-.774.68-1.147.12-.308-.466.071-.87.417-1.166a2.511 2.511 0 0 1 2.145-.616 2.033 2.033 0 0 0 1.772-.483c.727-.64 1.341-1.264 2.488-.796.572.235.763-.523.902-.973a5.955 5.955 0 0 0-.19-4.36c1.722-.712 2.924.084 2.949 1.975a10.884 10.884 0 0 1-.415 3.353c-.188.61-.433 1.311 0 1.965-.511.383-.854.95-.954 1.581-.621 3.928-3.121 6.196-6.697 7.452-.817.29-1.363.679-1.384 1.587-.041.738.131 1.349 1.016 1.45Z" fill="#F9CFDA"/><path fill-rule="evenodd" clip-rule="evenodd" d="M156.304 68.38c-.842-.968-1.453-2.156-2.876-2.698 2.331-.783 5.673.757 6.793 2.96 2.219 4.36 1.791 8.493-1.636 11.993-2.554 2.592-5.841 3.696-9.744 3.29 1.635-.938 3.178-1.717 4.612-2.658 2.516-1.654 3.748-4.034 3.666-7.067-.248-.442.068-.856.063-1.29.313-1.635-.406-3.06-.878-4.53Z" fill="#FED10E"/><path fill-rule="evenodd" clip-rule="evenodd" d="M104.15 47.155c-1.393 1.5-4.65 1.813-6.757.649-1.782-1.56-1.938-3.93-.381-5.768 1.69-1.992 4.361-2.295 6.285-.714 1.971 1.614 2.309 3.925.853 5.833ZM137.284 47.171c-1.709.2-2.478-1.049-3.325-2.18-.638-.46-.668-1.156-.663-1.835.022-2.393 2.181-4.505 4.577-4.497 2.396.008 4.538 2.129 4.549 4.525 0 1.03-.248 1.981-1.15 2.627-.984.693-2.099.545-3.195.485-.649-.027-1.096.069-.793.875Z" fill="#3C4E9D"/><path fill-rule="evenodd" clip-rule="evenodd" d="M141.272 45.822c1.376-2.758.76-5.252-1.587-6.37-1.589-.755-3.118-.572-4.456.515a3.999 3.999 0 0 0-1.467 4.244c.06.273.129.526.197.79l-.308.322c-1.028-1.025-2.075-2.036-3.372-2.709-.578-.303-.502-.545-.093-.864 1.448-1.167 2.767-2.573 4.375-3.434 2.366-1.268 4.77-.507 6.97.75.654.373 1.177.989 1.725 1.531 1.54 1.524 1.562 2.18.071 3.748-.583.613-1.145 1.3-2.055 1.477Z" fill="#FDFDFD"/><path fill-rule="evenodd" clip-rule="evenodd" d="M104.15 47.155c.916-2.415.652-4.089-.858-5.435a4.2 4.2 0 0 0-6.785 4.421c.205.597.503 1.157.884 1.66-1.562-.515-2.628-1.695-3.756-2.794a.9.9 0 0 1-.21-.992c.733-2.592 3.916-5.056 6.511-4.985.41-.03.82.046 1.192.22 1.818 1.17 3.832 2.058 5.331 3.705.442.485.545.842.142 1.398-.742 1.014-1.246 2.208-2.451 2.802Z" fill="#FDFDFE"/><path fill-rule="evenodd" clip-rule="evenodd" d="M156.304 68.38c.949 1.472 1.687 2.998 1.036 4.811-.545-.496-.273-1.232-.51-1.818a4.633 4.633 0 0 0-.894-2.625l.368-.368Z" fill="#3F371E"/><path fill-rule="evenodd" clip-rule="evenodd" d="m156.83 71.373.51 1.818-.237 1.008c-.158.867-.172 1.789-.818 2.51.063-1.79.719-3.52.545-5.336Z" fill="#F0D88E"/><path fill-rule="evenodd" clip-rule="evenodd" d="M154.679 83.982c-1.741.968-3.543 1.496-5.525.769 1.925.343 3.661-.674 5.525-.769Z" fill="#E7CE80"/><path fill-rule="evenodd" clip-rule="evenodd" d="m117.632 68.416 7.425-.736c.973-.096 1.828-.578 2.652-1.009 3.884-2.025 7.983-3.726 11.096-6.986.384-.403.867-.777 1.439-.442.676.393.349 1.012.243 1.587-.346 1.867-1.442 3.396-2.208 5.08-1.908 4.196-4.149 8.246-5.757 12.58a1.79 1.79 0 0 1-.204.338c-.286.253-.687.332-.943.63-1.363 1.444-2.181 3.216-3.146 4.906-2.636 4.66-8.676 6.997-12.917 5.048-3.96-1.818-6.882-4.571-7.441-9.292-.344-2.898-1.469-5.604-3.061-8.077-1.229-1.908-2.519-3.767-4.11-5.396-.289-.363-.818-.303-1.123-.655-.085-1.409-1.02-2.6-.995-4.053.024-1.404.482-1.815 1.81-1.363 1.327.453 2.401 1.35 3.521 2.16.06.234-.084.354-.256.454-.695.227-.91.693-.605 1.341.256.546.711.84 1.303.532.817-.425.902.087.984.67.171 1.718.523 1.982 2.131 1.57.213-.077.441-.102.665-.073.791.469.273 1.404.72 1.995 1.494 1.243 1.592 1.249 2.96-.038.638-.602 1.036-.352 1.322.324.099.347.144.708.134 1.069.122 1.412.91 2.085 2.325 2 1.332-.079 2.453-1.253 2.395-2.472a.879.879 0 0 0-.558-.84c-.292-.133-.581-.272-.521-.689.175-.308.433-.283.72-.163Z" fill="#010101"/><path fill-rule="evenodd" clip-rule="evenodd" d="M83.536 46.536c1.39-.73 2.05-2.18 3.175-3.18.188 3.341.892 6.634.932 9.99.028 2.18.94 4.107 1.925 5.996.572 1.09 1.158 2.18 1.75 3.303-.205.066-.35.134-.366.112-1.245-1.864-2.954-3.27-4.633-4.691a1.605 1.605 0 0 1-.545-.921 17.719 17.719 0 0 0-2.238-6.485c-.78-1.365.199-2.747 0-4.124Z" fill="#040303"/><path fill-rule="evenodd" clip-rule="evenodd" d="M99.577 65.998c.455.065.973-.188 1.362.272-.722.818-.239 1.532.251 2.197a27.782 27.782 0 0 1 3.432 5.997 26.059 26.059 0 0 1 1.308 4.285 46.521 46.521 0 0 0 4.214 11.448 4.608 4.608 0 0 0 2.617 2.221c2.142.818 4.465 1.287 6.217 2.95a.588.588 0 0 0 .951-.08c1.53-2.077 4.007-2.76 6.043-4.075 2.036-1.313 3.206-2.892 3.288-5.391.068-2.142.907-4.143 1.839-6.07.101-.207.229-.387.104-.622.273-.471.73-.272 1.126-.291 0 .75-.401 1.384-.627 2.069-.581 1.76-1.363 3.48-1.456 5.358-.155 3.116-1.815 5.163-4.527 6.395-2.276 1.033-4.312 2.306-5.68 4.459-.437.684-.835.373-1.153-.068a6.977 6.977 0 0 0-4.13-2.712c-4.62-1.159-6.269-4.868-7.885-8.78-1.091-2.67-1.478-5.49-2.219-8.223-.9-3.323-2.614-6.147-4.47-8.932-.505-.766-.807-1.502-.605-2.407Z" fill="#211212"/><path fill-rule="evenodd" clip-rule="evenodd" d="M98.546 25.456c2.955-1.262 5.692-1.347 8.177.117 2.816 1.66 5.179 3.947 7.153 6.583.272.354.725.768.242 1.16-.575.467-.741-.272-.976-.544-2.254-2.748-4.772-5.155-8.038-6.706-1.581-.75-3.189-.425-4.802-.384-.486.005-.974.177-1.756-.226Z" fill="#120E0F"/><path fill-rule="evenodd" clip-rule="evenodd" d="M117.632 68.416c-.232.073-.502.079-.635.335-1.925.572-3.797.665-5.539-.545-.221-.156-.428-.333-.662-.472-1.211-.711-1.658-.51-1.878.848-.06.354-.06.728-.393.97-.673-.61.147-1.597-.545-2.2.054-1.398-.97-1.807-2.014-2.2-1.044-.392-1.936-1.008-2.385-2.1l.343-.292c.796.082 1.404.578 1.998 1.022 2.11 1.575 4.511 2.625 6.814 3.843 1.532.79 3.282.387 4.896.79Z" fill="#262324"/><path fill-rule="evenodd" clip-rule="evenodd" d="M100.054 57.682c-1.216.291-2.306.22-3.119 1.027a4.814 4.814 0 0 0-1.106 1.688c-.156.395.013 1.169-.51 1.112-.679-.074-.507-.91-.532-1.385-.12-2.412 2.704-3.835 5.267-2.442Z" fill="#130F10"/><path fill-rule="evenodd" clip-rule="evenodd" d="M143.232 60.238a16.79 16.79 0 0 0-.469-1.793c-.316-.842-.802-1.537-1.881-1.407-.354.044-.801.156-.9-.327-.098-.482.355-.681.736-.817a2.214 2.214 0 0 1 2.701 1.053c.165.313.252.66.254 1.013a21.751 21.751 0 0 1-.185 2.251l-.256.027Z" fill="#251E20"/><path fill-rule="evenodd" clip-rule="evenodd" d="M100.582 43.102a1.738 1.738 0 0 1 1.612 1.17c.078.224.109.461.092.697a1.72 1.72 0 0 1-.59 1.25 1.725 1.725 0 0 1-1.318.415c-1.047-.111-1.622-.733-1.635-1.79a1.72 1.72 0 0 1 1.839-1.742ZM137.856 41.467a1.743 1.743 0 0 1 1.772 1.804 1.725 1.725 0 0 1-1.837 1.73c-1.052-.073-1.635-.675-1.698-1.73a1.716 1.716 0 0 1 1.763-1.804Z" fill="#020107"/><path fill-rule="evenodd" clip-rule="evenodd" d="M131.192 79.122c.289-.043.676-.016.455.36-1.428 2.437-2.047 5.094-2.243 7.877-.109 1.557-1.128 2.557-2.235 3.413a23.983 23.983 0 0 1-3.35 2.052c-1.445.774-2.919 1.47-3.781 2.98-.201.354-.558.577-.88.201-1.668-1.965-4.108-2.437-6.354-3.18-2.246-.745-3.118-2.498-3.941-4.362a59.054 59.054 0 0 1-3.68-11.175 20.288 20.288 0 0 0-3.677-7.804 10.216 10.216 0 0 1-1.185-1.818c-.273-.586-.62-1.385.608-1.406 2.027 2.43 4.001 4.906 5.353 7.792.997 2.13 1.812 4.32 2.025 6.706.273 2.998 2.238 4.906 4.361 6.754 5.345 4.604 13.187 1.235 15.537-3.748a18.435 18.435 0 0 1 2.987-4.642Z" fill="#E20B14"/><path fill-rule="evenodd" clip-rule="evenodd" d="M108.525 69.544c0-.93-.417-2.162.493-2.641.911-.48 1.941.272 2.661.96 1.597 1.528 3.543.667 5.318.89 1.515.41 1.635.65 1.161 2.293-.406 1.412-1.636 2.09-3.326 1.84-1.51-.224-2.011-.856-2.006-2.522.02-.317.016-.635-.013-.95a.576.576 0 0 0-.297-.393c-.164-.066-.295.081-.423.237-1.494 1.799-1.499 1.793-3.568.286Z" fill="#FEFEFE"/><path fill-rule="evenodd" clip-rule="evenodd" d="M122.661 72.316c-.935.147-1.592-.338-2.132-.978a2.295 2.295 0 0 1-.499-2.042c.172-.69.941-.395 1.412-.455 1.341-.166 2.707-.17 4.023-.526.663-.177.908.22 1.066.736a2.327 2.327 0 0 1-.235 1.836 2.34 2.34 0 0 1-1.498 1.088c-.695.175-1.423.232-2.137.341Z" fill="#FDFDFD"/><path fill-rule="evenodd" clip-rule="evenodd" d="M119.488 86.918c.084.155.151.32.199.49.068.39.196.736.67.668.475-.068.499-.477.477-.845-.087-1.414.584-2.333 1.876-2.802.722-.273 2.396 1.074 2.292 1.794a.472.472 0 0 1-.218.31c-1.755.75-3.184 2.33-5.326 2.094-.292-.586-.48-1.148.03-1.71Z" fill="#F9F8F9"/><path fill-rule="evenodd" clip-rule="evenodd" d="M130.126 66.235c.671-.04 1.295 1.317.933 2.042a3.68 3.68 0 0 1-1.941 1.799c-1.298.504-1.698-.584-2.148-1.44-.493-.94.463-.864.872-1.117.755-.483 1.554-.889 2.284-1.284Z" fill="#FCFCFC"/><path fill-rule="evenodd" clip-rule="evenodd" d="M119.488 86.918c-.18.567.272 1.144-.03 1.709-.493.31-1.052.193-1.584.237-.782.068-1.662.054-2.069-.668-.332-.589.848-2.538 1.508-2.802 1.014-.409 1.684.06 2.175 1.524Z" fill="#FAFAFA"/><path fill-rule="evenodd" clip-rule="evenodd" d="M115.045 88.01c-1.535-.585-2.309-1.842-3.421-2.67-.234-.178-.346-.418-.068-.674.611-.545 1.363-.376 2.066-.376.589 0 .897.425.998.94.171.88.275 1.772.425 2.78Z" fill="#F5F5F5"/><path fill-rule="evenodd" clip-rule="evenodd" d="M106.137 64.891c.274.145.559.265.854.36 1.232.286 1.482 1.008.978 2.093-.619.63-1.336.922-2.161.461-.826-.46-.99-1.21-.777-2.082.161-.554.201-1.265 1.106-.832Z" fill="#FBFBFB"/><path fill-rule="evenodd" clip-rule="evenodd" d="M134.537 65.011c-.115 1.03-.78 1.72-1.57 2.235-.685.445-1.159 0-1.486-.646-.327-.646-.311-1.063.409-1.379.57-.248 1.107-.575 1.652-.878.237-.133.49-.321.747-.171.302.177.283.52.248.84Z" fill="#F9F9F9"/><path fill-rule="evenodd" clip-rule="evenodd" d="M126.068 85.247c-1.306-1.603-1.341-2.105-.232-2.925.474-.349 1.044-.471 1.502-.147.545.384.343.978.046 1.445-.362.586-.695 1.232-1.316 1.627Z" fill="#F3F2F3"/><path fill-rule="evenodd" clip-rule="evenodd" d="M106.137 64.891c-.687-.144-.817.45-1.106.832-.115-.186.12-1-.515-.248-.477.57-1.025.155-1.445-.142-.627-.445-.657-1.15-.545-1.843.112-.692.632-.466 1.055-.447.888.556 1.406 1.641 2.556 1.848Z" fill="#EDECED"/><path fill-rule="evenodd" clip-rule="evenodd" d="M110.531 84.01c-.496-.758-1.057-1.203-.52-1.868a.6.6 0 0 1 .666-.134.615.615 0 0 1 .198.134c.586.69-.208 1.063-.344 1.867Z" fill="#D9D8D8"/><path fill-rule="evenodd" clip-rule="evenodd" d="M101.752 45.302c-.047.498-.273.768-.684.787a.668.668 0 0 1-.077-1.333c.453-.079.6.295.761.546ZM139.086 43.865c-.131.36-.346.651-.783.578a.664.664 0 0 1-.595-.73.666.666 0 0 1 .729-.595.691.691 0 0 1 .649.747Z" fill="#E9E9E9"/><path d="M296.052 56.284h2.812l1.064-2.128 1.216-2.736 1.596-3.268c3.04-6.13 5.016-9.804 5.928-11.02 2.635-3.597 5.7-5.396 9.196-5.396 1.165 0 2.331.127 3.496.38s2.229.583 3.192.988c-.963 2.432-1.495 3.825-1.596 4.18-.101.355-.203 1.216-.304 2.584-.152 1.115-.228 1.925-.228 2.432v1.216h-1.52l-2.432-.988c-.709-.355-1.368-.583-1.976-.684-.608-.152-1.317-.228-2.128-.228-3.04 0-7.169 5.168-12.388 15.504 6.485 1.47 11.299 3.699 14.44 6.688 4.509 4.256 6.764 10.59 6.764 19h4.56V86h-20.672v-3.192h2.964c0-7.448-.76-12.743-2.28-15.884-2.027-4.205-5.928-6.865-11.704-7.98v23.864h4.712V86h-22.8v-3.192h6.308V35.992h-6.308V32.8h23.332v3.192h-5.244v20.292ZM332.589 70.572c0-5.827 1.824-11.223 5.472-16.188 3.141-4.256 5.852-6.384 8.132-6.384 2.533 0 5.295 1.419 8.284 4.256 3.901 3.699 5.852 8.335 5.852 13.908 0 4.61-1.647 9.5-4.94 14.668-3.243 5.168-6.181 7.752-8.816 7.752-2.635 0-5.573-1.95-8.816-5.852-3.445-4.155-5.168-8.208-5.168-12.16Zm7.752-14.06c-1.571 1.976-2.356 4.003-2.356 6.08 0 3.496 1.039 6.916 3.116 10.26 2.635 4.256 6.029 6.384 10.184 6.384.659 0 1.165-.025 1.52-.076a10.58 10.58 0 0 0 .988-2.66c.203-.963.304-1.925.304-2.888 0-4.256-1.216-8.005-3.648-11.248-2.584-3.445-5.953-5.396-10.108-5.852ZM374.492 80.528l.304 2.584c.102.659.228 2.128.38 4.408.203 2.28.304 4.864.304 7.752 0 3.8-.43 6.435-1.292 7.904-.81 1.52-1.976 2.28-3.496 2.28-1.013 0-1.596-.253-1.748-.76v-.456c.051-.355.076-.963.076-1.824V94.436a59.494 59.494 0 0 0-.38-6.536c-.506-5.27-.861-9.019-1.064-11.248a75.792 75.792 0 0 1-.304-6.688c0-6.03 1.926-11.375 5.776-16.036 3.243-3.901 6.08-5.852 8.512-5.852 2.635 0 5.472 2.33 8.512 6.992 3.395 5.168 5.092 10.741 5.092 16.72 0 4.51-1.013 8.208-3.04 11.096-1.976 2.837-4.509 4.256-7.6 4.256-1.925 0-3.825-.633-5.7-1.9-1.874-1.317-3.318-2.888-4.332-4.712Zm2.128-25.308c-1.216 1.773-2.052 3.547-2.508 5.32-.456 1.773-.684 3.927-.684 6.46 0 4.459 1.14 8.259 3.42 11.4 1.976 2.736 4.003 4.104 6.08 4.104 1.014 0 1.85-.33 2.508-.988 1.064-1.013 1.596-2.635 1.596-4.864V73.84c0-2.99-.988-6.41-2.964-10.26-2.178-4.205-4.661-6.992-7.448-8.36ZM402.058 70.572c0-5.827 1.824-11.223 5.472-16.188 3.141-4.256 5.852-6.384 8.132-6.384 2.533 0 5.294 1.419 8.284 4.256 3.901 3.699 5.852 8.335 5.852 13.908 0 4.61-1.647 9.5-4.94 14.668-3.243 5.168-6.182 7.752-8.816 7.752-2.635 0-5.574-1.95-8.816-5.852-3.446-4.155-5.168-8.208-5.168-12.16Zm7.752-14.06c-1.571 1.976-2.356 4.003-2.356 6.08 0 3.496 1.038 6.916 3.116 10.26 2.634 4.256 6.029 6.384 10.184 6.384.658 0 1.165-.025 1.52-.076a10.58 10.58 0 0 0 .988-2.66 14.03 14.03 0 0 0 .304-2.888c0-4.256-1.216-8.005-3.648-11.248-2.584-3.445-5.954-5.396-10.108-5.852ZM449.129 56.588a27.245 27.245 0 0 1-.988 2.888 565.11 565.11 0 0 1-1.216 2.66c-1.621 3.597-2.736 6.46-3.344 8.588-.608 2.077-.912 4.003-.912 5.776 0 1.216.076 2.179.228 2.888.152.659.507 1.596 1.064 2.812a15.69 15.69 0 0 0 1.14 1.9c.304.405.456.76.456 1.064 0 .608-.481.912-1.444.912L440.085 86l-3.572.152c-1.064 0-1.748-.127-2.052-.38-.253-.304-.38-1.039-.38-2.204 0-2.939.887-6.207 2.66-9.804.861-1.773 2.736-4.89 5.624-9.348a395.324 395.324 0 0 0 3.04-4.788c1.317-2.23 1.976-3.927 1.976-5.092 0-.608-.152-1.368-.456-2.28-.101-.405-.101-.71 0-.912.203-.456.709-.684 1.52-.684h6.84c1.216 0 1.951.152 2.204.456.101.152.152.659.152 1.52 0 1.47.481 4.104 1.444 7.904a156.245 156.245 0 0 0 1.824 6.536c1.571 4.915 2.989 8.968 4.256 12.16.76 1.925 1.52 3.825 2.28 5.7 0 .76-.431 1.14-1.292 1.14a8.073 8.073 0 0 0-.836-.076l-3.116-.076-3.04.076c-1.165 0-2.001-.507-2.508-1.52-.76-1.52-2.052-5.725-3.876-12.616l-.988-3.8a94.635 94.635 0 0 1-1.14-4.256 66.188 66.188 0 0 1-.456-2.052l-.532-2.66-.532-2.508ZM495.01 86h-19.608c-.912 0-1.596-.228-2.052-.684-.405-.507-.608-1.267-.608-2.28V72.928c0-10.133.152-16.39.456-18.772.355-2.381 1.242-3.572 2.66-3.572l2.28.076h2.432c.507-.101.862-.152 1.064-.152h.836c.659.101.988.507.988 1.216 0 .355-.101.861-.304 1.52-.506 1.621-.76 3.597-.76 5.928a74.392 74.392 0 0 0-.228 5.7v1.596c3.04 0 5.852.355 8.436 1.064 2.635.71 4.991 1.875 7.068 3.496 2.28 1.824 3.927 3.977 4.94 6.46a14.79 14.79 0 0 1 1.064 5.548c0 1.47-.506 2.407-1.52 2.812-.506.203-1.444.304-2.812.304h-1.292l-1.292-.076L495.01 86Zm-12.844-2.584h8.664l1.292-.076.076-2.432c0-2.381-.506-4.408-1.52-6.08-1.722-2.787-4.585-4.433-8.588-4.94-.05.456-.101.937-.152 1.444v2.584c0 1.824.026 3.825.076 6.004.102 2.179.152 3.344.152 3.496ZM547.541 65.48l12.92-7.676c0-3.293.126-5.295.38-6.004.253-.76.988-1.14 2.204-1.14h6.612c.658 0 .988.405.988 1.216l-.38 3.116c-.355 2.128-.608 3.825-.76 5.092-.102 1.267-.152 3.065-.152 5.396 0 3.75.076 6.916.228 9.5.202 2.533.532 5.472.988 8.816.101.81-.026 1.393-.38 1.748-.304.304-1.191.456-2.66.456h-4.484c-1.166 0-1.926-1.343-2.28-4.028-.304-2.736-.456-9.753-.456-21.052l-12.768 7.676c0 2.077.076 4.205.228 6.384.152 2.179.481 5.117.988 8.816.101.81-.026 1.393-.38 1.748-.304.304-1.191.456-2.66.456h-4.484c-.71 0-1.216-.152-1.52-.456-.456-.456-.684-1.292-.684-2.508l-.304-4.788c0-1.875-.026-3.344-.076-4.408-.203-4.205-.304-6.89-.304-8.056 0-6.84.228-11.197.684-13.072.304-1.368.988-2.052 2.052-2.052h6.764c.658 0 .988.405.988 1.216l-.38 3.116a353.416 353.416 0 0 0-.684 5.016c-.152 1.52-.228 3.344-.228 5.472ZM622.09 82.808h15.352V35.992h-5.244V32.8h22.268v3.192h-5.244v46.816h15.352V35.992h-5.244V32.8h23.332v3.192h-6.308v46.816h6.308V86h-78.66v-3.192h6.308V35.992h-6.308V32.8h23.332v3.192h-5.244v46.816ZM702.454 83.416h3.04c.405-4.661.861-8.487 1.368-11.476.354-2.077.886-4.56 1.596-7.448.912-3.901 1.95-6.865 3.116-8.892 2.178-3.85 5.092-5.776 8.74-5.776 1.114 0 1.976.101 2.584.304.658.152.988.557.988 1.216 0 .456-.152.988-.456 1.596-.304.608-.583 1.19-.836 1.748-.254.507-.406.937-.456 1.292-.051.304-.076.71-.076 1.216v2.584c0 .608-.051 1.09-.152 1.444l-1.748.076c-.406-1.317-1.368-1.976-2.888-1.976-2.078 0-3.8 1.545-5.168 4.636-1.976 4.51-2.964 11.907-2.964 22.192 0 6.435.329 10.995.988 13.68.354 1.469.532 3.167.532 5.092 0 .557-.406.988-1.216 1.292-.76.304-2.534.456-5.32.456-.659 0-1.064-.152-1.216-.456-.102-.253-.152-.684-.152-1.292 0-2.432.076-4.509.228-6.232.152-1.672.557-4.636 1.216-8.892l.532-3.8h-4.408c-2.128 0-3.572.025-4.332.076-.71.05-1.368.101-1.976.152-.507 0-.786-.253-.836-.76a8.29 8.29 0 0 0 .076-.836V82.96c0-3.597-.558-8.183-1.672-13.756-1.115-5.624-2.407-10.437-3.876-14.44a16.239 16.239 0 0 1-.608-1.9c-.152-.659-.228-1.14-.228-1.444 0-.608.481-.912 1.444-.912.658.05 1.089.076 1.292.076.304.05.684.076 1.14.076H695.994c.506 0 .861.177 1.064.532.202.304.405 1.14.608 2.508l.532 2.584 1.292 6.84c.506 2.685 1.089 6.156 1.748 10.412.709 4.256 1.064 7.119 1.064 8.588l.152 1.292ZM765.675 64.948l-3.952-.684c.253-.71.481-1.444.684-2.204.203-.76.304-1.47.304-2.128 0-2.837-1.14-4.788-3.42-5.852-1.317-.608-3.167-.912-5.548-.912h-1.368l-.076 7.144-.152 5.168c0 2.027.051 4.89.152 8.588.152 3.699.279 6.967.38 9.804 0 .912-.101 1.495-.304 1.748-.405.456-1.317.684-2.736.684h-4.484c-1.064 0-1.697-.456-1.9-1.368-.203-.912-.304-3.344-.304-7.296l.076-4.712V69.66l.152-8.664.228-7.828h-1.368c-3.091 0-5.371.557-6.84 1.672-1.419 1.115-2.128 2.812-2.128 5.092 0 .507.101 1.165.304 1.976.051.152.279.937.684 2.356l-3.952.684c-.608-1.875-1.216-3.42-1.824-4.636-.557-1.267-1.419-2.736-2.584-4.408a17.735 17.735 0 0 1-.912-1.596 4.36 4.36 0 0 1-.38-1.824c0-.71.228-1.343.684-1.9.456-.557.963-.836 1.52-.836.456 0 1.064.076 1.824.228.811.101 1.799.228 2.964.38 1.216.152 2.66.253 4.332.304h23.56c.912 0 1.824-.025 2.736-.076.963-.05 1.697-.127 2.204-.228a62.348 62.348 0 0 1 2.508-.38c1.115-.152 1.925-.228 2.432-.228.608 0 1.115.279 1.52.836.456.507.684 1.14.684 1.9 0 .659-.101 1.216-.304 1.672-.152.456-.481 1.039-.988 1.748-1.165 1.672-2.052 3.141-2.66 4.408-.557 1.216-1.14 2.761-1.748 4.636Z" fill="#FFD10D"/><path d="M406.876 23.252c-.352.323-.799.572-1.342.748a5.53 5.53 0 0 1-1.716.264c-.689 0-1.291-.132-1.804-.396a3.651 3.651 0 0 1-1.254-1.166c-.323-.513-.565-1.122-.726-1.826a11.673 11.673 0 0 1-.22-2.376c0-1.877.345-3.307 1.034-4.29.689-.983 1.665-1.474 2.926-1.474.411 0 .814.051 1.21.154.411.103.777.308 1.1.616.323.308.579.74.77 1.298.205.557.308 1.283.308 2.178 0 .25-.015.52-.044.814-.015.279-.037.572-.066.88h-5.588c0 .63.051 1.203.154 1.716.103.513.264.953.484 1.32.22.352.499.63.836.836.352.19.785.286 1.298.286.396 0 .785-.073 1.166-.22.396-.147.697-.323.902-.528l.572 1.166Zm-1.232-5.896c.029-1.1-.125-1.907-.462-2.42-.337-.513-.799-.77-1.386-.77-.675 0-1.21.257-1.606.77-.396.513-.631 1.32-.704 2.42h4.158ZM413.663 18.368 410.759 13h1.892l1.628 3.146.44 1.232.462-1.232L416.853 13h1.738l-2.926 5.28 3.102 5.72h-1.804l-1.848-3.454-.484-1.32-.506 1.32L412.277 24h-1.738l3.124-5.632ZM421.847 16.96h4.334v1.518h-4.334V16.96ZM439.149 16.872h-.792V24h-1.65V8.6h1.65v7.172l.77-.308 4.004-6.864h1.892l-4.026 6.644-.77.704.902.88L445.595 24h-2.09l-4.356-7.128ZM448.634 16.3c0-2.61.418-4.59 1.254-5.94.836-1.35 2.112-2.024 3.828-2.024.924 0 1.709.19 2.354.572.645.367 1.166.895 1.562 1.584.411.69.711 1.525.902 2.508.191.983.286 2.083.286 3.3 0 2.61-.425 4.59-1.276 5.94-.836 1.35-2.112 2.024-3.828 2.024-.909 0-1.687-.183-2.332-.55a4.5 4.5 0 0 1-1.584-1.606c-.411-.69-.711-1.525-.902-2.508-.176-.983-.264-2.083-.264-3.3Zm1.738 0c0 .865.059 1.687.176 2.464.132.777.33 1.46.594 2.046.264.587.609 1.056 1.034 1.408.425.352.939.528 1.54.528 1.1 0 1.936-.528 2.508-1.584.572-1.056.858-2.677.858-4.862 0-.85-.066-1.665-.198-2.442-.117-.777-.308-1.46-.572-2.046-.264-.601-.609-1.078-1.034-1.43-.425-.352-.946-.528-1.562-.528-1.085 0-1.914.528-2.486 1.584-.572 1.056-.858 2.677-.858 4.862ZM463.59 8.754a9.981 9.981 0 0 1 1.584-.242 16.257 16.257 0 0 1 1.606-.088c.572 0 1.115.073 1.628.22.513.132.961.367 1.342.704.381.323.682.755.902 1.298.235.528.352 1.195.352 2.002 0 1.217-.257 2.193-.77 2.926a3.605 3.605 0 0 1-2.002 1.474l.836.814L472.104 24h-1.914l-3.3-6.71-1.65-.33V24h-1.65V8.754Zm1.65 7.106h1.32c.836 0 1.496-.257 1.98-.77s.726-1.298.726-2.354c0-.807-.205-1.474-.616-2.002-.396-.528-.99-.792-1.782-.792-.293 0-.601.015-.924.044a3.476 3.476 0 0 0-.704.088v5.786ZM475.495 16.3c0-2.61.418-4.59 1.254-5.94.836-1.35 2.112-2.024 3.828-2.024.924 0 1.709.19 2.354.572.646.367 1.166.895 1.562 1.584.411.69.712 1.525.902 2.508.191.983.286 2.083.286 3.3 0 2.61-.425 4.59-1.276 5.94-.836 1.35-2.112 2.024-3.828 2.024-.909 0-1.686-.183-2.332-.55a4.5 4.5 0 0 1-1.584-1.606c-.41-.69-.711-1.525-.902-2.508-.176-.983-.264-2.083-.264-3.3Zm1.738 0c0 .865.059 1.687.176 2.464.132.777.33 1.46.594 2.046.264.587.609 1.056 1.034 1.408.426.352.939.528 1.54.528 1.1 0 1.936-.528 2.508-1.584.572-1.056.858-2.677.858-4.862 0-.85-.066-1.665-.198-2.442-.117-.777-.308-1.46-.572-2.046-.264-.601-.608-1.078-1.034-1.43-.425-.352-.946-.528-1.562-.528-1.085 0-1.914.528-2.486 1.584-.572 1.056-.858 2.677-.858 4.862ZM497.866 24h-7.414V8.6h1.65v13.882h5.764V24ZM501.452 23.01c0-.41.096-.719.286-.924.206-.205.477-.308.814-.308.338 0 .602.103.792.308.206.205.308.513.308.924 0 .425-.102.74-.308.946-.19.205-.454.308-.792.308-.337 0-.608-.103-.814-.308-.19-.205-.286-.52-.286-.946ZM508.168 8.6h1.65V24h-1.65V8.6ZM517.747 14.232l-.946-2.42h-.066l.242 2.42V24h-1.584V8.358h.99l5.698 9.988.902 2.31h.088l-.242-2.31V8.6h1.584v15.642h-1.012l-5.654-10.01ZM529.651 8.6h6.842v1.518h-5.192v5.434h4.84v1.518h-4.84V24h-1.65V8.6ZM540.697 16.3c0-2.61.418-4.59 1.254-5.94.836-1.35 2.112-2.024 3.828-2.024.924 0 1.709.19 2.354.572.645.367 1.166.895 1.562 1.584.411.69.711 1.525.902 2.508.191.983.286 2.083.286 3.3 0 2.61-.425 4.59-1.276 5.94-.836 1.35-2.112 2.024-3.828 2.024-.909 0-1.687-.183-2.332-.55a4.5 4.5 0 0 1-1.584-1.606c-.411-.69-.711-1.525-.902-2.508-.176-.983-.264-2.083-.264-3.3Zm1.738 0c0 .865.059 1.687.176 2.464.132.777.33 1.46.594 2.046.264.587.609 1.056 1.034 1.408.425.352.939.528 1.54.528 1.1 0 1.936-.528 2.508-1.584.572-1.056.858-2.677.858-4.862 0-.85-.066-1.665-.198-2.442-.117-.777-.308-1.46-.572-2.046-.264-.601-.609-1.078-1.034-1.43-.425-.352-.946-.528-1.562-.528-1.085 0-1.914.528-2.486 1.584-.572 1.056-.858 2.677-.858 4.862Z" fill="#D73916"/></svg>