<svg fill="none" xmlns="http://www.w3.org/2000/svg" viewBox="0 0 4613 300"><g clip-path="url(#a)"><path d="M268 247h-50l31-193h50l-31 193zM449 58c-10-4-25-8-45-8-49 0-84 26-84 64-1 28 25 43 44 53 19 9 26 15 26 24 0 13-16 19-30 19-20 0-31-3-47-11l-7-3-7 44c12 5 33 10 56 10 52 0 87-26 87-66 0-22-13-39-42-53-17-9-28-15-28-24 0-8 9-16 29-16 16-1 28 3 37 7l4 2 7-42zm67 121 20-55 6-18 4 17 11 56h-41zm62-125h-39c-12 0-21 3-26 16l-75 177h53l10-29h65l6 29h46L578 54zm-402 0-49 132-5-27c-10-31-38-65-70-81l45 169h53l79-193h-53z" fill="#00579F"/><path d="M81 54H1l-1 3c63 16 104 55 122 102l-18-89c-3-13-12-16-23-16z" fill="#FAA61A"/></g><g clip-path="url(#b)"><path d="M748 279v-17c0-6-4-11-11-11-3 0-7 1-10 5-2-3-5-5-9-5-3 0-6 1-8 4v-3h-6v27h6v-15c0-5 3-7 7-7s6 3 6 7v15h6v-15c0-5 3-7 6-7 4 0 6 3 6 7v15h7zm89-27h-9v-9h-6v9h-6v5h6v13c0 6 2 10 9 10l8-2-2-5-5 1c-3 0-4-1-4-4v-13h9v-5zm52-1c-4 0-6 2-8 4v-3h-6v27h6v-15c0-5 2-7 6-7h4l2-5-4-1zm-78 3c-3-2-7-3-11-3-7 0-11 4-11 9s3 7 9 8h3l5 3c0 2-3 4-7 4s-7-2-9-3l-3 5 12 3c8 0 13-4 13-9s-4-7-10-8l-3-1c-2 0-4 0-4-2s2-3 5-3l9 2 2-5zm161-3c-4 0-6 2-7 4v-3h-6v27h6v-15c0-5 2-7 5-7h4l2-5-4-1zm-77 15c0 8 5 14 14 14 4 0 7-1 10-3l-3-5c-2 2-4 3-7 3-5 0-8-4-8-9 0-6 3-9 8-9l7 2 3-5c-3-2-6-3-10-3-9 0-14 6-14 15zm55 0v-14h-6v3c-2-2-4-4-8-4-8 0-14 6-14 15 0 8 6 14 14 14 4 0 7-1 8-4v3h6v-13zm-22 0c0-5 3-9 9-9 5 0 8 3 8 9 0 5-3 9-8 9-6-1-9-4-9-9zm-72-15c-8 0-14 6-14 15 0 8 6 14 14 14 4 0 8-1 12-4l-3-4c-3 2-5 3-8 3-4 0-8-2-9-7h21v-2c0-9-5-15-13-15zm0 5c4 0 6 3 7 7h-14c0-4 3-7 7-7zm150 10v-25h-6v14c-2-2-5-4-9-4-7 0-14 6-14 15 0 8 7 14 14 14 4 0 7-1 9-4v3h6v-13zm-22 0c0-5 3-9 8-9s9 3 9 9c0 5-4 9-9 9-5-1-8-4-8-9zm-202 0v-14h-6v3c-2-2-5-4-9-4-8 0-14 6-14 15 0 8 6 14 14 14 4 0 7-1 9-4v3h6v-13zm-23 0c0-5 4-9 9-9s8 3 8 9c0 5-3 9-8 9-5-1-9-4-9-9z" fill="#000"/><path d="M900 42h-91v163h91V42z" fill="#FF5F00"/><path d="M815 124c0-34 16-63 39-82a103 103 0 1 0 0 163c-23-19-39-48-39-81z" fill="#EB001B"/><path d="M1022 124a103 103 0 0 1-167 81 104 104 0 0 0 0-163 104 104 0 0 1 167 81z" fill="#F79E1B"/></g><path d="M1871 54a101 101 0 0 1 50 13l-9 8-14-14-23 21-14-15-44 39 28 30-11 9 28 31-11 9 39 43 23-21 20 23-13 8a99 99 0 0 1-149-86c0-54 45-98 100-98zm-18 92 24-21 21 24-24 21-21-24zm17 41 23-21 22 23-24 21-21-23zm-34-81 24-21 21 24-24 21-21-24zm43-11 18-16 16 18-18 16-16-18zm32 72 18-15 16 17-18 16-16-18zm16 36 17-16 16 18-17 16-16-18zm7-81 12-11 10 12-12 10-10-11zm-15-35 11-11 11 12-12 11-10-12zm30 70 12-11 11 12-12 10-11-11zm-53-27 17-15 16 17-17 16-16-18z" fill="#036CB5"/><mask id="c" maskUnits="userSpaceOnUse" x="1112" y="94" width="105" height="92"><path d="M1113 95v91h104V95h-104z" fill="#fff"/></mask><g mask="url(#c)"><path d="M1165 122h-1l-17 64h-14l-20-91h14l14 68h1l17-68h11l18 68h1l13-68h15l-21 91h-14l-17-64z" fill="#036CB5"/></g><path d="M1235 147h29c-1-13-7-19-14-19-8 0-14 6-15 19zm39 24v10c-6 3-13 6-23 6-21 0-30-13-30-34 0-19 10-33 29-33 16 0 26 10 26 31v5h-42c0 15 7 22 20 22 7 0 13-2 20-7zm32 6 11 2c10 0 17-6 17-27 0-16-6-22-14-22-6 0-9 2-14 5v42zm0-52c4-2 10-5 17-5 16 0 24 12 24 32 0 24-11 36-30 36-6 0-17-3-24-7V92l13-3v36zm99 42 28-72h16v91h-14v-66h-1l-26 66h-9l-26-65h-1v65h-11V95h15l29 72zm100-14c0-17-7-24-16-24-8 0-16 7-16 24 0 18 7 25 16 25s16-7 16-25zm-45 0c0-22 12-33 29-33s29 11 29 33-11 34-29 34c-17 0-29-12-29-34zm68-24c6-3 18-9 33-9s21 6 21 19v46h-13v-43c0-10-5-12-12-12-5 0-11 2-15 5v50h-14v-56zm82 18h29c0-13-7-19-14-19-8 0-14 6-15 19zm39 24v10c-5 3-13 6-22 6-22 0-30-13-30-34 0-19 9-33 29-33 16 0 25 10 25 31v5h-41c0 15 6 22 19 22 7 0 13-2 20-7zm55-51h14l-23 64c-6 18-14 27-29 27v-11c9 0 14-7 17-16l-24-64h14l16 47h1l14-47z" fill="#036CB5"/><path d="M1250 245v-6c5 3 10 4 14 4l8-2c2-1 3-3 3-5l-2-5a44 44 0 0 0-12-5l-3-1-2-2-2-1-2-1-1-2-1-2a22 22 0 0 1-1-4c0-4 1-7 4-9s6-4 11-4c4 0 9 1 13 3v6l-12-3-7 1-2 5 2 5 8 4 13 6c2 2 3 4 3 8s-2 7-5 9c-3 3-7 4-13 4-5 0-10-1-14-3zm65 2h-6l-1-4c-3 3-7 5-11 5-3 0-5-1-7-3l-2-6a10 10 0 0 1 3-7l5-3 8-1h4v-2l-1-6-6-1-11 3v-5l13-3c5 0 8 1 9 3 2 2 3 4 3 8v22zm-7-15h-3c-7 0-11 2-11 7l2 3 3 1 5-2 4-2v-7zm17 28v-41l7-4 7-1c9 0 13 6 13 16 0 6-1 10-3 13s-6 5-10 5c-3 0-5-1-7-3v15h-7zm7-39v20l3 1 3 1c3 0 4-1 6-3l2-10-2-8c-2-2-3-3-6-3l-6 2zm36-7v33h-7v-31l7-2zm-8-9 1-3 3-1 3 1a4 4 0 0 1 0 6l-3 1-3-1-1-3zm32 38c3 0 7-1 10-3v5c-3 2-7 3-11 3-5 0-9-2-11-5-3-3-4-7-4-12s1-9 4-12c2-3 6-5 10-5s8 1 10 4 3 7 3 12v2h-20c0 4 0 7 2 9l7 2zm-2-25c-2 0-3 1-5 3l-2 7h14l-2-7c-1-2-3-3-5-3zm22 29v-28c5-3 10-5 16-5l8 2 2 8v23h-6v-22l-2-4-4-2c-3 0-5 1-8 3v25h-6zm43-31h10l-2 4h-8v17c0 4 2 6 5 6h5v4l-8 1c-3 0-5-1-7-3l-2-7v-27l7-4v9zm23-2v33h-7v-31l7-2zm-8-9 1-3a4 4 0 0 1 6 0 4 4 0 0 1 0 6 4 4 0 0 1-6 0l-1-3zm53 12v5l-10-3-4 1c-1 0-2 1-2 3l2 3 6 2a139 139 0 0 1 5 3l3 1 2 3v3c0 3-1 5-3 7-3 2-6 3-10 3s-8-1-11-3v-5l11 3c4 0 7-1 7-4l-1-2-1-1-2-1-2-1a229 229 0 0 1-9-5l-3-2v-4l1-5 3-2a19 19 0 0 1 18 1zm35 30h-6l-1-4c-3 3-7 5-11 5-3 0-5-1-7-3l-2-6a10 10 0 0 1 3-7l5-3 8-1h4v-2l-2-6-5-1-11 3v-5c4-2 9-3 13-3 5 0 8 1 9 3 2 2 3 4 3 8v22zm-7-15h-3c-7 0-11 2-11 7l2 3 3 1 5-2 4-2v-7zm23-16h10l-1 4h-9v17c0 4 2 6 6 6h4v4l-7 1c-3 0-6-1-7-3-2-2-2-4-2-7v-27l6-4v9z" fill="#B6B6B6"/><path d="M2425 170h10v23h7l14-23h11l-16 27 17 29h-12l-13-24h-8v24h-10v-56zm66 15c12 0 22 9 22 21 0 13-10 21-22 21s-22-8-22-21 9-21 22-21zm30 1h10v32h13v-32h9v32h13v-32h10v40h-54v-40h-1zm84-1c11 0 18 8 18 19l-1 4h-28c1 7 6 11 12 11 5 0 9-2 12-5l4 8c-4 3-10 5-16 5-14 0-22-9-22-21 0-13 8-21 21-21zm22 33c5-1 9-5 9-20v-12h30v40h-11v-32h-9v4c0 18-5 28-19 29v-9zm67-33c12 0 18 8 18 19v4h-28c1 7 6 11 12 11 5 0 9-2 12-5l4 8c-4 3-11 5-16 5-14 0-22-9-22-21 0-13 8-21 20-21zm27 1h10v15h5l10-15h11l-13 19 14 21h-11l-11-16h-5v16h-10v-40zm-230 33c6 0 12-6 12-13 0-8-6-13-12-13-7 0-12 5-12 13 0 7 5 13 12 13zm121-18c0-5-3-9-8-9s-9 4-10 9h18zm90 0c0-5-3-9-8-9s-9 4-10 9h18z" fill="#2D3540"/><path d="M2567 46v96l-1 1a3 3 0 0 1-1 2h-21a3 3 0 0 1-1-1 3 3 0 0 1-1-2V46a3 3 0 0 1 2-2h20a3 3 0 0 1 2 0 3 3 0 0 1 1 2zm153-2 2 1 1 2-33 96-1 1-1 1h-18l-2-2-19-56-19 56a3 3 0 0 1-2 2h-18l-2-2-33-96 1-2 2-1h22c1 0 2 0 2 2l18 56 19-56a3 3 0 0 1 2-2h15c2 0 2 0 3 2l19 56 17-56a3 3 0 0 1 3-2h22zm33 0 2 2v97a3 3 0 0 1-1 2h-21a3 3 0 0 1-2-1 3 3 0 0 1-1-2V46a3 3 0 0 1 3-2h20zm-223 98c2 1 1 3-1 3h-24a3 3 0 0 1-3-1l-4-5a53 53 0 1 1 16-16l16 19zm-200 46c5 2 7 9 7 13 1 6-1 8-2 8-2 0-5-2-8-7s-4-10-2-12c1-2 3-3 5-2zm-29 22c3 0 7 1 10 4 6 5 7 10 4 14-1 3-4 4-7 4-4 0-7-1-9-3-6-5-7-13-4-17l6-2zm-66 55a131 131 0 1 1 112-64l-1-1c-5-32-25-49-53-55-3 0-3-2 0-2 9-1 21-1 28 1a87 87 0 0 0-86-97 87 87 0 0 0 0 173h4l-2-23c0-6 2-6 4-2 12 20 29 39 62 47 28 6 55 13 85 50 2 3-2 7-5 4-30-27-57-35-82-35-28 0-47 4-66 4zm248-145-11-12c-1-2 0-4 2-4h22l2-10c0-16-12-29-28-29s-28 13-28 29 12 29 28 29c4 1 9-1 13-3z" fill="#FF8C00"/><path d="M3060 50a100 100 0 1 0 100 100c0-55-45-100-100-100zm0 137c-21 0-38-17-38-37s17-37 38-37c20 0 37 17 37 37s-16 37-37 37z" fill="#8B3FFD"/><path d="M2960 79v146h-36l-46-146h82z" fill="#8B3FFD"/><path d="m3803 105-22 54v3l-1 1-1-1v-3l-23-54h-28l37 93-15 36h28l53-129h-28zm-210 5c-5-4-11-6-19-7-12-1-24 3-33 12v-11h-26v93h26v-48c0-11 2-14 4-17 3-5 9-7 16-7s13 3 16 8l3 11v53h26v-56c0-14-5-25-13-31zm-127-4c-13-5-27-4-39 2-8 3-16 10-21 18-4 7-6 16-6 25 0 10 2 19 6 26 5 7 11 13 18 17 8 3 17 6 25 6l13-2 12-4a46 46 0 0 0 24-43c0-21-12-38-32-45zm8 47c-1 8-4 15-9 19-3 3-9 5-16 6-7 0-12-2-17-6s-7-11-8-19a24 24 0 0 1 24-27c6 0 10 2 15 4 7 5 11 13 11 23zm-104-43c-5-4-11-6-19-7h-4c-10 0-19 5-27 13l-1 2h-2l-7-7c-5-4-12-7-19-7-12-1-22 2-30 11v-9h-26v93h26v-50c0-10 1-13 3-16 3-5 9-8 15-8 7 0 12 3 15 9 3 3 3 8 3 12v52h26v-50c0-9 1-13 3-16 3-5 9-7 15-7 7 0 12 3 15 8 2 3 2 7 2 9v55h26v-56c0-6 0-11-2-15-2-6-6-12-12-16zm333 60c-3 3-12 10-24 11-10 1-18-3-24-8l-5-10h71v-1l1-11c0-3 0-7-2-13a49 49 0 0 0-38-34c-19-3-39 5-50 22-8 12-7 24-7 28s0 18 12 31c13 14 32 15 37 16 26 0 43-16 46-19l-17-12zm-44-40c4-2 8-4 14-4s10 2 14 4c4 4 7 7 9 12h-45c0-5 4-9 8-12z" fill="#000"/><path fill-rule="evenodd" clip-rule="evenodd" d="M4052 72c5 0 21-2 27 21l22 73h4l21-73c7-23 23-21 30-21h51v160h-52v-95h-3l-30 95h-39l-29-95h-4v95h-52V72h54zm231 0v94h4l35-78c7-15 22-16 22-16h51v160h-54v-95h-4l-35 78c-7 15-22 17-22 17h-51V72h54zm297 76c-8 21-31 36-57 36h-56v48h-51v-84h164z" fill="#0F754E"/><path fill-rule="evenodd" clip-rule="evenodd" d="M4525 72h-112c3 35 34 66 65 66h105c6-30-14-66-58-66z" fill="url(#d)"/><defs><clipPath id="a"><path fill="#fff" transform="translate(0 50)" d="M0 0h618v200H0z"/></clipPath><clipPath id="b"><path fill="#fff" transform="translate(687 20)" d="M0 0h335v260H0z"/></clipPath><linearGradient id="d" x1="4584.3" y1="113.3" x2="4413.2" y2="113.3" gradientUnits="userSpaceOnUse"><stop stop-color="#1F5CD7"/><stop offset="1" stop-color="#02AEFF"/></linearGradient></defs></svg>