<svg width="26" height="25" viewBox="0 0 26 25" fill="none" xmlns="http://www.w3.org/2000/svg">
<path fill-rule="evenodd" clip-rule="evenodd" d="M7.97333 4.2381C9.2042 2.77605 10.9474 2.08252 12.9218 2.08252C14.942 2.08252 16.6748 2.89893 17.8828 4.38701C18.9553 5.70952 19.5625 7.49439 19.6728 9.56978L19.7686 9.58436L19.7895 9.58749C19.9665 9.61248 20.1779 9.64372 20.3976 9.68642C21.2109 9.84366 22.599 10.2415 23.077 11.7316C23.3165 12.4803 23.1967 13.1739 22.7771 13.7237C22.4157 14.1975 21.8992 14.4714 21.5296 14.637C21.3463 14.7203 21.163 14.7911 21.0089 14.8504C21.3692 15.8251 21.9961 16.828 22.6896 17.736C23.3425 18.592 23.1697 19.676 22.8323 20.3831C22.4938 21.0912 21.7628 21.9003 20.6986 21.9462C20.0967 21.9722 19.4646 22.0347 18.8356 22.1492C18.5513 22.2013 18.216 22.3148 17.7995 22.4866C17.5506 22.5887 17.3225 22.6907 17.0768 22.8001C16.881 22.8875 16.6748 22.9792 16.4363 23.0812C15.4575 23.5019 14.2547 23.9508 12.9218 23.9508C11.5889 23.9508 10.3861 23.5019 9.40726 23.0812C9.1688 22.9792 8.96157 22.8875 8.76684 22.8001C8.52742 22.6922 8.2865 22.5877 8.04414 22.4866C7.62761 22.3148 7.29229 22.2002 7.00801 22.1482C6.37904 22.0336 5.74694 21.9722 5.144 21.9462C4.08079 21.9003 3.34872 21.0912 3.01133 20.3831C2.67393 19.676 2.50107 18.592 3.15399 17.736C3.85169 16.8217 4.48171 15.8116 4.84097 14.8307C4.68333 14.7686 4.52741 14.7023 4.37341 14.6318C4.0131 14.4631 3.52367 14.1934 3.16232 13.7414C2.75932 13.2353 2.58125 12.5824 2.73954 11.8347C3.07693 10.2342 4.58272 9.83533 5.3783 9.68537C5.60428 9.64372 5.824 9.61248 6.00832 9.58645L6.04476 9.58124L6.16972 9.56354C6.27282 7.35068 6.87576 5.54082 7.97333 4.2381ZM9.56659 5.57935C8.77204 6.52177 8.23575 8.03693 8.23575 10.2654V10.3737L8.21284 10.481C8.09725 11.0266 7.67759 11.2818 7.46932 11.3796C7.25064 11.4827 7.01426 11.5338 6.84764 11.565C6.68519 11.5952 6.504 11.6202 6.34259 11.6421L6.29469 11.6494C6.11668 11.6729 5.93925 11.7007 5.76256 11.7327C4.96593 11.8816 4.81494 12.0794 4.77641 12.2637C4.74933 12.396 4.77328 12.4231 4.78682 12.4376L4.79099 12.4418C4.84618 12.5116 4.97947 12.6157 5.25647 12.7448C5.38559 12.8052 5.52201 12.8604 5.673 12.9219L5.71049 12.9365C5.84274 12.9885 5.99999 13.052 6.13848 13.1176C6.2749 13.1801 6.50296 13.2947 6.69665 13.48C6.92158 13.6956 7.19337 14.1163 7.06112 14.6713C6.68207 16.2656 5.72507 17.8006 4.81077 18.9981C4.79686 19.0332 4.79116 19.0709 4.79411 19.1085C4.79411 19.2074 4.82223 19.3428 4.88991 19.4855C4.95864 19.6281 5.04611 19.7375 5.12734 19.8031C5.19399 19.8572 5.23147 19.8656 5.23564 19.8656C5.91355 19.8947 6.64145 19.9655 7.38081 20.0999C7.88378 20.1915 8.3805 20.3727 8.83869 20.5622C9.09174 20.6663 9.38227 20.7955 9.66448 20.9204C9.86129 21.0079 10.0539 21.0933 10.2268 21.1672C11.163 21.5682 12.0367 21.8681 12.9218 21.8681C13.8069 21.8681 14.6817 21.5682 15.6168 21.1672C15.7897 21.0933 15.9823 21.0069 16.1791 20.9204C16.4603 20.7955 16.7519 20.6663 17.0039 20.5622C17.4621 20.3727 17.9588 20.1915 18.4618 20.0999C19.2011 19.9645 19.93 19.8947 20.6069 19.8656C20.6132 19.8656 20.6496 19.8572 20.7163 19.8031C20.817 19.7152 20.8979 19.6069 20.9537 19.4855C21.0121 19.3681 21.0448 19.2395 21.0495 19.1085C21.0495 19.0117 21.0255 18.9887 21.0339 19.0002C20.1196 17.8027 19.1615 16.2667 18.7814 14.6713C18.6409 14.0778 18.9626 13.6508 19.1844 13.453C19.3823 13.278 19.6135 13.1687 19.7541 13.1072C19.8946 13.0448 20.0529 12.9854 20.1883 12.9344L20.2383 12.9146C20.3976 12.8552 20.5403 12.8 20.6746 12.7386C20.9558 12.6126 21.0755 12.5157 21.1161 12.4668C21.1125 12.4331 21.1051 12.4 21.0943 12.3679C20.9995 12.0721 20.7319 11.8722 20.0009 11.7306C19.8353 11.6993 19.6676 11.6743 19.4906 11.6473L19.451 11.6421C19.2862 11.6197 19.122 11.5933 18.9585 11.5629C18.7464 11.5258 18.5401 11.4606 18.3451 11.3692C18.1264 11.2609 17.7411 11.0016 17.6308 10.481L17.6079 10.3737V10.2644C17.6079 8.23374 17.0799 6.70296 16.2656 5.70015C15.4689 4.71712 14.3391 4.16521 12.9218 4.16521C11.4587 4.16521 10.3393 4.66089 9.56555 5.57935H9.56659Z" fill="#C4B6B6"/>
</svg>
