<svg width="25" height="25" viewBox="0 0 25 25" fill="none" xmlns="http://www.w3.org/2000/svg">
<path fill-rule="evenodd" clip-rule="evenodd" d="M11.9777 8.85158C11.9777 9.78462 11.6268 10.6364 11.0499 11.281C11.8596 11.857 12.4653 12.6754 12.7795 13.6182C13.0936 14.5609 13.1 15.5791 12.7976 16.5256C12.4952 17.4722 11.8997 18.2981 11.0972 18.8841C10.2947 19.4701 9.32672 19.7859 8.33303 19.7857H3.64698C3.2327 19.7857 2.8354 19.6211 2.54247 19.3282C2.24953 19.0353 2.08496 18.6379 2.08496 18.2237V5.72754C2.08496 5.31327 2.24953 4.91597 2.54247 4.62303C2.8354 4.3301 3.2327 4.16553 3.64698 4.16553H7.81236C8.91708 4.16553 9.97656 4.60438 10.7577 5.38554C11.5389 6.1667 11.9777 7.22618 11.9777 8.3309V8.85158ZM4.16765 10.4136V6.24822H7.81236C8.36472 6.24822 8.89446 6.46764 9.28504 6.85822C9.67562 7.2488 9.89504 7.77854 9.89504 8.3309V8.85158C9.89504 9.26585 9.73047 9.66315 9.43754 9.95609C9.14461 10.249 8.7473 10.4136 8.33303 10.4136H4.16765ZM4.16765 12.4963H8.33303C9.02348 12.4963 9.68566 12.7706 10.1739 13.2588C10.6621 13.747 10.9364 14.4092 10.9364 15.0996C10.9364 15.7901 10.6621 16.4523 10.1739 16.9405C9.68566 17.4287 9.02348 17.703 8.33303 17.703H4.16765V12.4963Z" fill="#C4B6B6"/>
<path d="M15.6226 6.24789C15.6226 5.97171 15.7323 5.70684 15.9276 5.51155C16.1229 5.31626 16.3877 5.20654 16.6639 5.20654H20.3086C20.5848 5.20654 20.8497 5.31626 21.0449 5.51155C21.2402 5.70684 21.35 5.97171 21.35 6.24789C21.35 6.52407 21.2402 6.78894 21.0449 6.98423C20.8497 7.17952 20.5848 7.28923 20.3086 7.28923H16.6639C16.3877 7.28923 16.1229 7.17952 15.9276 6.98423C15.7323 6.78894 15.6226 6.52407 15.6226 6.24789Z" fill="#C4B6B6"/>
<path fill-rule="evenodd" clip-rule="evenodd" d="M18.4861 8.33057C15.5276 8.33057 13.019 10.6028 13.019 13.5373V14.5786C13.019 17.5131 15.5276 19.7854 18.4861 19.7854C20.0637 19.7854 21.2061 19.3313 21.9715 18.8377C22.4318 18.542 22.7931 18.1817 23.1409 17.7672C23.2922 17.5399 23.3482 17.2623 23.2969 16.9942C23.2455 16.726 23.0908 16.4887 22.8662 16.3335C22.6416 16.1782 22.365 16.1174 22.096 16.1641C21.8269 16.2108 21.587 16.3613 21.4279 16.5832C21.2626 16.7822 21.0656 16.9525 20.8447 17.0872C20.3959 17.3757 19.641 17.7027 18.4861 17.7027C16.5565 17.7027 15.1017 16.2448 15.1017 14.5786H22.9118C23.188 14.5786 23.4529 14.4689 23.6482 14.2736C23.8434 14.0783 23.9532 13.8135 23.9532 13.5373C23.9532 10.6028 21.4446 8.33057 18.4861 8.33057ZM21.6757 12.4959C21.2175 11.3078 19.9971 10.4133 18.4861 10.4133C16.9751 10.4133 15.7547 11.3078 15.2965 12.4959H21.6757Z" fill="#C4B6B6"/>
</svg>
