<svg width="26" height="25" viewBox="0 0 26 25" fill="none" xmlns="http://www.w3.org/2000/svg">
<path fill-rule="evenodd" clip-rule="evenodd" d="M4.45903 11.1611C7.15819 11.385 9.74281 10.8435 11.8828 9.61995C10.8062 8.02078 9.54471 6.55415 8.12456 5.25047C7.14609 5.93708 6.31685 6.81479 5.68686 7.83065C5.05687 8.8465 4.63919 9.97945 4.45903 11.1611ZM7.68511 3.05948C6.03819 4.02332 4.67233 5.40159 3.72342 7.05716C2.7745 8.71273 2.27561 10.5879 2.27637 12.4961C2.27637 18.5349 7.17173 23.4303 13.2105 23.4303C19.2492 23.4303 24.1446 18.5349 24.1446 12.4961C24.1446 6.45738 19.2492 1.56203 13.2105 1.56203C11.2682 1.55888 9.36039 2.07556 7.68511 3.05844V3.05948ZM10.0656 4.21849C11.3787 5.4941 12.5574 6.90103 13.5833 8.41719C14.8819 7.29676 15.8895 5.8782 16.5199 4.28306C15.468 3.85968 14.3444 3.64295 13.2105 3.64471C12.1363 3.64352 11.0709 3.83831 10.0667 4.21954L10.0656 4.21849ZM18.3558 5.29316C17.5589 7.20645 16.3024 8.89363 14.6975 10.2052C15.0599 10.8394 15.3963 11.4881 15.7055 12.1494C17.6664 11.3861 19.7876 11.0341 21.9692 11.2142C21.7968 10.0351 21.3879 8.90285 20.7672 7.88556C20.1464 6.86827 19.3266 5.98685 18.3568 5.2942L18.3558 5.29316ZM22.0244 13.3094C20.1271 13.1157 18.2548 13.4032 16.5136 14.0707C17.2334 15.9737 17.7102 17.96 17.933 19.9824C19.0808 19.2582 20.0467 18.2798 20.756 17.1227C21.4653 15.9656 21.8989 14.6609 22.0234 13.3094H22.0244ZM15.9263 20.9217C15.7731 18.8869 15.3353 16.8836 14.6257 14.9704C12.4201 16.2377 10.5269 18.1319 9.21172 20.3947C10.4509 21.0231 11.8211 21.3496 13.2105 21.3476C14.1581 21.3476 15.0714 21.1987 15.9274 20.9227L15.9263 20.9217ZM7.4758 19.2388C9.00033 16.6626 11.2142 14.4778 13.8197 13.0335C13.5588 12.4759 13.2775 11.9281 12.9762 11.3913C10.4624 12.8408 7.45706 13.4781 4.38926 13.2438C4.58495 15.5717 5.69474 17.7272 7.4758 19.2388Z" fill="#C4B6B6"/>
</svg>
