<svg width="26" height="25" viewBox="0 0 26 25" fill="none" xmlns="http://www.w3.org/2000/svg">
<path fill-rule="evenodd" clip-rule="evenodd" d="M2.89062 6.2479C2.89062 5.14317 3.32948 4.08369 4.11064 3.30253C4.8918 2.52137 5.95128 2.08252 7.056 2.08252H19.5521C20.6569 2.08252 21.7163 2.52137 22.4975 3.30253C23.2787 4.08369 23.7175 5.14317 23.7175 6.2479V18.744C23.7175 19.8488 23.2787 20.9082 22.4975 21.6894C21.7163 22.4706 20.6569 22.9094 19.5521 22.9094H7.056C5.95128 22.9094 4.8918 22.4706 4.11064 21.6894C3.32948 20.9082 2.89063 19.8488 2.89062 18.744V6.2479ZM7.056 4.16521C6.50364 4.16521 5.9739 4.38463 5.58332 4.77521C5.19274 5.16579 4.97331 5.69553 4.97331 6.2479V18.744C4.97331 19.2964 5.19274 19.8261 5.58332 20.2167C5.9739 20.6073 6.50364 20.8267 7.056 20.8267H13.3041V13.5373H12.2627C11.9865 13.5373 11.7217 13.4276 11.5264 13.2323C11.3311 13.037 11.2214 12.7721 11.2214 12.496C11.2214 12.2198 11.3311 11.9549 11.5264 11.7596C11.7217 11.5643 11.9865 11.4546 12.2627 11.4546H13.3041V9.8926C13.3041 8.92597 13.6881 7.99892 14.3716 7.31541C15.0551 6.63189 15.9821 6.2479 16.9488 6.2479H17.5736C17.8498 6.2479 18.1146 6.35761 18.3099 6.5529C18.5052 6.74819 18.6149 7.01306 18.6149 7.28924C18.6149 7.56542 18.5052 7.83029 18.3099 8.02558C18.1146 8.22087 17.8498 8.33059 17.5736 8.33059H16.9488C16.7436 8.33059 16.5405 8.37099 16.351 8.44949C16.1615 8.52799 15.9893 8.64304 15.8443 8.78809C15.6992 8.93314 15.5842 9.10533 15.5057 9.29484C15.4272 9.48436 15.3868 9.68747 15.3868 9.8926V11.4546H17.5736C17.8498 11.4546 18.1146 11.5643 18.3099 11.7596C18.5052 11.9549 18.6149 12.2198 18.6149 12.496C18.6149 12.7721 18.5052 13.037 18.3099 13.2323C18.1146 13.4276 17.8498 13.5373 17.5736 13.5373H15.3868V20.8267H19.5521C20.1045 20.8267 20.6342 20.6073 21.0248 20.2167C21.4154 19.8261 21.6348 19.2964 21.6348 18.744V6.2479C21.6348 5.69553 21.4154 5.16579 21.0248 4.77521C20.6342 4.38463 20.1045 4.16521 19.5521 4.16521H7.056Z" fill="#C4B6B6"/>
</svg>
