<svg width="26" height="25" viewBox="0 0 26 25" fill="none" xmlns="http://www.w3.org/2000/svg">
<path fill-rule="evenodd" clip-rule="evenodd" d="M6.3851 2.08252C5.28038 2.08252 4.2209 2.52137 3.43974 3.30253C2.65858 4.08369 2.21973 5.14317 2.21973 6.2479V18.744C2.21973 19.8488 2.65858 20.9082 3.43974 21.6894C4.2209 22.4706 5.28038 22.9094 6.3851 22.9094H18.8812C19.986 22.9094 21.0454 22.4706 21.8266 21.6894C22.6078 20.9082 23.0466 19.8488 23.0466 18.744V6.2479C23.0466 5.14317 22.6078 4.08369 21.8266 3.30253C21.0454 2.52137 19.986 2.08252 18.8812 2.08252H6.3851ZM4.30242 6.2479C4.30242 5.69553 4.52184 5.16579 4.91242 4.77521C5.303 4.38463 5.83274 4.16521 6.3851 4.16521H18.8812C19.4336 4.16521 19.9633 4.38463 20.3539 4.77521C20.7445 5.16579 20.9639 5.69553 20.9639 6.2479V18.744C20.9639 19.2964 20.7445 19.8261 20.3539 20.2167C19.9633 20.6073 19.4336 20.8267 18.8812 20.8267H6.3851C5.83274 20.8267 5.303 20.6073 4.91242 20.2167C4.52184 19.8261 4.30242 19.2964 4.30242 18.744V6.2479ZM9.50914 11.4546C9.50914 11.1784 9.39942 10.9136 9.20413 10.7183C9.00884 10.523 8.74397 10.4133 8.46779 10.4133C8.19161 10.4133 7.92674 10.523 7.73145 10.7183C7.53616 10.9136 7.42645 11.1784 7.42645 11.4546V17.7027C7.42645 17.9789 7.53616 18.2437 7.73145 18.439C7.92674 18.6343 8.19161 18.744 8.46779 18.744C8.74397 18.744 9.00884 18.6343 9.20413 18.439C9.39942 18.2437 9.50914 17.9789 9.50914 17.7027V11.4546ZM10.0298 7.80991C10.0298 8.22419 9.86524 8.62149 9.5723 8.91443C9.27937 9.20736 8.88206 9.37193 8.46779 9.37193C8.05352 9.37193 7.65621 9.20736 7.36328 8.91443C7.07034 8.62149 6.90578 8.22419 6.90578 7.80991C6.90578 7.39564 7.07034 6.99834 7.36328 6.7054C7.65621 6.41247 8.05352 6.2479 8.46779 6.2479C8.88206 6.2479 9.27937 6.41247 9.5723 6.7054C9.86524 6.99834 10.0298 7.39564 10.0298 7.80991ZM12.6332 10.4133C12.9872 10.4133 13.2996 10.5903 13.4871 10.859C14.0238 10.5665 14.6253 10.4132 15.2365 10.4133C17.4858 10.4133 18.8812 12.4189 18.8812 14.1319V17.7027C18.8812 17.9789 18.7715 18.2437 18.5762 18.439C18.3809 18.6343 18.1161 18.744 17.8399 18.744C17.5637 18.744 17.2988 18.6343 17.1035 18.439C16.9083 18.2437 16.7985 17.9789 16.7985 17.7027V14.1309C16.7985 13.3311 16.1113 12.4949 15.2365 12.4949C14.6909 12.4949 14.0879 12.7917 13.6745 13.4977V17.7027C13.6745 17.9789 13.5648 18.2437 13.3695 18.439C13.1742 18.6343 12.9094 18.744 12.6332 18.744C12.357 18.744 12.0921 18.6343 11.8968 18.439C11.7015 18.2437 11.5918 17.9789 11.5918 17.7027V11.4546C11.5918 11.1784 11.7015 10.9136 11.8968 10.7183C12.0921 10.523 12.357 10.4133 12.6332 10.4133Z" fill="#C4B6B6"/>
</svg>
