<svg width="26" height="25" viewBox="0 0 26 25" fill="none" xmlns="http://www.w3.org/2000/svg">
<path fill-rule="evenodd" clip-rule="evenodd" d="M3.93572 12.4961C3.93635 10.6129 4.53762 8.77892 5.65212 7.26085C6.76662 5.74279 8.33626 4.61976 10.1328 4.05503C11.9294 3.49029 13.8593 3.51329 15.6419 4.12067C17.4245 4.72806 18.9669 5.88817 20.045 7.43236C21.123 8.97655 21.6804 10.8243 21.6361 12.707C21.5919 14.5898 20.9483 16.4093 19.7989 17.9012C18.6496 19.393 17.0544 20.4794 15.2452 21.0024C13.436 21.5254 11.5072 21.4577 9.73913 20.8092C10.3399 19.1988 10.9227 17.5819 11.4875 15.9586C12.0853 16.3855 12.8569 16.6615 13.8285 16.6615C15.8435 16.6615 17.9678 15.3338 18.4937 12.7002C19.157 9.39396 16.5089 6.24806 12.7871 6.24806C11.222 6.24806 9.6829 6.87703 8.53117 7.87464C7.37736 8.87537 6.53908 10.3166 6.53908 11.9755C6.53908 12.7825 6.78275 13.6812 7.36278 14.2727C7.55934 14.4661 7.82403 14.5747 8.09984 14.5749C8.37564 14.5751 8.64049 14.4669 8.83732 14.2737C9.02873 14.0824 9.13817 13.8241 9.14245 13.5536C9.14672 13.283 9.0455 13.0214 8.86023 12.8242C8.04174 11.8036 9.12057 10.1208 9.89533 9.44915C10.7003 8.75145 11.7635 8.33075 12.7871 8.33075C15.3145 8.33075 16.8317 10.3916 16.4527 12.292C16.1361 13.8686 14.9365 14.5788 13.8285 14.5788C12.9767 14.5788 12.5185 14.2196 12.2248 13.7541C12.3852 13.2501 12.5216 12.7919 12.6195 12.4191C12.8194 11.6516 12.9402 10.7258 12.2498 10.15C11.7364 9.72303 11.1304 9.81675 10.7596 10.0031C10.0692 10.3468 9.66311 11.1528 9.66311 11.9755C9.66311 12.4347 9.73496 13.147 9.99322 13.8832C9.32124 15.8874 8.6137 17.8794 7.87096 19.8584C6.6595 19.0502 5.66641 17.9552 4.9799 16.6709C4.29339 15.3865 3.93471 13.9525 3.93572 12.4961ZM12.7871 1.56201C6.74839 1.56201 1.85303 6.45737 1.85303 12.4961C1.85303 18.5349 6.74839 23.4302 12.7871 23.4302C18.8259 23.4302 23.7213 18.5349 23.7213 12.4961C23.7213 6.45737 18.8259 1.56201 12.7871 1.56201Z" fill="#C4B6B6"/>
</svg>
